ISO-10303-21;
HEADER;
/* Generated by software containing ST-Developer
 * from STEP Tools, Inc. (www.steptools.com) 
 */
/* OPTION: using custom renumber hook */

FILE_DESCRIPTION(
/* description */ ('STEP AP242 Edition 2',
'CAx-IF Rec.Pracs.---Representation and Presentation of Product Manufa
cturing Information (PMI)---4.0---2014-10-13',
'CAx-IF Rec.Pracs.---3D Tessellated Geometry---0.4---2014-09-14','2;1',
'CAx-IF Rec.Pracs.---User Defined Attributes---1.5---2016-08-15'),
/* implementation_level */ '2;1');

FILE_NAME(
/* name */ 'Gripper Handle Copy 1',
/* time_stamp */ '2026-09-07T18:44:29Z',
/* author */ (''),
/* organization */ (''),
/* preprocessor_version */ 'ST-DEVELOPER v20',
/* originating_system */ 'ONSHAPE BY PTC INC, 1.220',
/* authorisation */ '  ');

FILE_SCHEMA (('AP242_MANAGED_MODEL_BASED_3D_ENGINEERING_MIM_LF { 1 0 10303 442 3 1 4 }'));
ENDSEC;

DATA;
#10=SHAPE_REPRESENTATION_RELATIONSHIP('','',#704,#11);
#11=ADVANCED_BREP_SHAPE_REPRESENTATION('',(#702),#1170);
#12=CIRCLE('',#709,0.00215);
#13=CIRCLE('',#710,0.00215);
#14=CIRCLE('',#712,0.00215);
#15=CIRCLE('',#713,0.00215);
#16=CIRCLE('',#715,0.00616651172009878);
#17=CIRCLE('',#716,0.00616651172009878);
#18=CIRCLE('',#717,0.00616651172009878);
#19=CIRCLE('',#718,0.00616651172009878);
#20=CIRCLE('',#720,0.00215);
#21=CIRCLE('',#721,0.00215);
#22=CIRCLE('',#723,0.00215);
#23=CIRCLE('',#724,0.00215);
#24=CIRCLE('',#730,0.00215);
#25=CIRCLE('',#732,0.00215);
#26=CIRCLE('',#734,0.00215);
#27=CIRCLE('',#735,0.00215);
#28=CIRCLE('',#737,0.00215);
#29=CIRCLE('',#738,0.00215);
#30=CIRCLE('',#742,0.00215);
#31=CIRCLE('',#744,0.00215);
#32=CIRCLE('',#750,0.00168005677767209);
#33=CIRCLE('',#751,0.00168005677767209);
#34=CIRCLE('',#753,0.00766814424265884);
#35=CIRCLE('',#754,0.00766814424265884);
#36=CIRCLE('',#757,0.0005);
#37=CIRCLE('',#759,0.0005);
#38=CIRCLE('',#762,0.00499999999999985);
#39=CIRCLE('',#763,0.00499999999999985);
#40=CIRCLE('',#767,0.005);
#41=CIRCLE('',#768,0.005);
#42=CIRCLE('',#770,0.005);
#43=CIRCLE('',#771,0.005);
#44=CYLINDRICAL_SURFACE('',#708,0.00215);
#45=CYLINDRICAL_SURFACE('',#711,0.00215);
#46=CYLINDRICAL_SURFACE('',#714,0.00616651172009878);
#47=CYLINDRICAL_SURFACE('',#729,0.00215);
#48=CYLINDRICAL_SURFACE('',#731,0.00215);
#49=CYLINDRICAL_SURFACE('',#733,0.00215);
#50=CYLINDRICAL_SURFACE('',#736,0.00215);
#51=CYLINDRICAL_SURFACE('',#741,0.00215);
#52=CYLINDRICAL_SURFACE('',#743,0.00215);
#53=CYLINDRICAL_SURFACE('',#749,0.00168005677767209);
#54=CYLINDRICAL_SURFACE('',#752,0.00766814424265884);
#55=CYLINDRICAL_SURFACE('',#760,0.0005);
#56=CYLINDRICAL_SURFACE('',#761,0.00499999999999985);
#57=CYLINDRICAL_SURFACE('',#766,0.005);
#58=CYLINDRICAL_SURFACE('',#769,0.005);
#59=ORIENTED_EDGE('',*,*,#241,.F.);
#60=ORIENTED_EDGE('',*,*,#242,.F.);
#61=ORIENTED_EDGE('',*,*,#243,.T.);
#62=ORIENTED_EDGE('',*,*,#244,.F.);
#63=ORIENTED_EDGE('',*,*,#245,.F.);
#64=ORIENTED_EDGE('',*,*,#246,.T.);
#65=ORIENTED_EDGE('',*,*,#247,.T.);
#66=ORIENTED_EDGE('',*,*,#248,.T.);
#67=ORIENTED_EDGE('',*,*,#249,.F.);
#68=ORIENTED_EDGE('',*,*,#250,.T.);
#69=ORIENTED_EDGE('',*,*,#251,.T.);
#70=ORIENTED_EDGE('',*,*,#252,.F.);
#71=ORIENTED_EDGE('',*,*,#253,.T.);
#72=ORIENTED_EDGE('',*,*,#254,.T.);
#73=ORIENTED_EDGE('',*,*,#255,.F.);
#74=ORIENTED_EDGE('',*,*,#244,.T.);
#75=ORIENTED_EDGE('',*,*,#256,.T.);
#76=ORIENTED_EDGE('',*,*,#257,.T.);
#77=ORIENTED_EDGE('',*,*,#258,.F.);
#78=ORIENTED_EDGE('',*,*,#252,.T.);
#79=ORIENTED_EDGE('',*,*,#259,.F.);
#80=ORIENTED_EDGE('',*,*,#260,.T.);
#81=ORIENTED_EDGE('',*,*,#261,.F.);
#82=ORIENTED_EDGE('',*,*,#262,.T.);
#83=ORIENTED_EDGE('',*,*,#263,.T.);
#84=ORIENTED_EDGE('',*,*,#264,.T.);
#85=ORIENTED_EDGE('',*,*,#265,.F.);
#86=ORIENTED_EDGE('',*,*,#246,.F.);
#87=ORIENTED_EDGE('',*,*,#266,.T.);
#88=ORIENTED_EDGE('',*,*,#267,.T.);
#89=ORIENTED_EDGE('',*,*,#268,.F.);
#90=ORIENTED_EDGE('',*,*,#250,.F.);
#91=ORIENTED_EDGE('',*,*,#269,.F.);
#92=ORIENTED_EDGE('',*,*,#270,.T.);
#93=ORIENTED_EDGE('',*,*,#271,.F.);
#94=ORIENTED_EDGE('',*,*,#272,.F.);
#95=ORIENTED_EDGE('',*,*,#273,.F.);
#96=ORIENTED_EDGE('',*,*,#274,.F.);
#97=ORIENTED_EDGE('',*,*,#275,.F.);
#98=ORIENTED_EDGE('',*,*,#276,.F.);
#99=ORIENTED_EDGE('',*,*,#277,.F.);
#100=ORIENTED_EDGE('',*,*,#278,.T.);
#101=ORIENTED_EDGE('',*,*,#253,.F.);
#102=ORIENTED_EDGE('',*,*,#251,.F.);
#103=ORIENTED_EDGE('',*,*,#268,.T.);
#104=ORIENTED_EDGE('',*,*,#279,.F.);
#105=ORIENTED_EDGE('',*,*,#280,.F.);
#106=ORIENTED_EDGE('',*,*,#281,.T.);
#107=ORIENTED_EDGE('',*,*,#276,.T.);
#108=ORIENTED_EDGE('',*,*,#282,.T.);
#109=ORIENTED_EDGE('',*,*,#283,.F.);
#110=ORIENTED_EDGE('',*,*,#284,.F.);
#111=ORIENTED_EDGE('',*,*,#285,.F.);
#112=ORIENTED_EDGE('',*,*,#282,.F.);
#113=ORIENTED_EDGE('',*,*,#275,.T.);
#114=ORIENTED_EDGE('',*,*,#286,.T.);
#115=ORIENTED_EDGE('',*,*,#287,.F.);
#116=ORIENTED_EDGE('',*,*,#286,.F.);
#117=ORIENTED_EDGE('',*,*,#274,.T.);
#118=ORIENTED_EDGE('',*,*,#288,.T.);
#119=ORIENTED_EDGE('',*,*,#289,.F.);
#120=ORIENTED_EDGE('',*,*,#288,.F.);
#121=ORIENTED_EDGE('',*,*,#273,.T.);
#122=ORIENTED_EDGE('',*,*,#290,.T.);
#123=ORIENTED_EDGE('',*,*,#255,.T.);
#124=ORIENTED_EDGE('',*,*,#291,.T.);
#125=ORIENTED_EDGE('',*,*,#292,.F.);
#126=ORIENTED_EDGE('',*,*,#290,.F.);
#127=ORIENTED_EDGE('',*,*,#272,.T.);
#128=ORIENTED_EDGE('',*,*,#293,.F.);
#129=ORIENTED_EDGE('',*,*,#294,.T.);
#130=ORIENTED_EDGE('',*,*,#295,.T.);
#131=ORIENTED_EDGE('',*,*,#266,.F.);
#132=ORIENTED_EDGE('',*,*,#245,.T.);
#133=ORIENTED_EDGE('',*,*,#261,.T.);
#134=ORIENTED_EDGE('',*,*,#259,.T.);
#135=ORIENTED_EDGE('',*,*,#270,.F.);
#136=ORIENTED_EDGE('',*,*,#296,.T.);
#137=ORIENTED_EDGE('',*,*,#269,.T.);
#138=ORIENTED_EDGE('',*,*,#297,.F.);
#139=ORIENTED_EDGE('',*,*,#298,.F.);
#140=ORIENTED_EDGE('',*,*,#299,.T.);
#141=ORIENTED_EDGE('',*,*,#300,.T.);
#142=ORIENTED_EDGE('',*,*,#301,.F.);
#143=ORIENTED_EDGE('',*,*,#292,.T.);
#144=ORIENTED_EDGE('',*,*,#302,.T.);
#145=ORIENTED_EDGE('',*,*,#277,.T.);
#146=ORIENTED_EDGE('',*,*,#285,.T.);
#147=ORIENTED_EDGE('',*,*,#287,.T.);
#148=ORIENTED_EDGE('',*,*,#289,.T.);
#149=ORIENTED_EDGE('',*,*,#301,.T.);
#150=ORIENTED_EDGE('',*,*,#299,.F.);
#151=ORIENTED_EDGE('',*,*,#297,.T.);
#152=ORIENTED_EDGE('',*,*,#296,.F.);
#153=ORIENTED_EDGE('',*,*,#281,.F.);
#154=ORIENTED_EDGE('',*,*,#303,.F.);
#155=ORIENTED_EDGE('',*,*,#293,.T.);
#156=ORIENTED_EDGE('',*,*,#271,.T.);
#157=ORIENTED_EDGE('',*,*,#304,.F.);
#158=ORIENTED_EDGE('',*,*,#283,.T.);
#159=ORIENTED_EDGE('',*,*,#305,.F.);
#160=ORIENTED_EDGE('',*,*,#284,.T.);
#161=ORIENTED_EDGE('',*,*,#280,.T.);
#162=ORIENTED_EDGE('',*,*,#306,.F.);
#163=ORIENTED_EDGE('',*,*,#294,.F.);
#164=ORIENTED_EDGE('',*,*,#303,.T.);
#165=ORIENTED_EDGE('',*,*,#279,.T.);
#166=ORIENTED_EDGE('',*,*,#267,.F.);
#167=ORIENTED_EDGE('',*,*,#295,.F.);
#168=ORIENTED_EDGE('',*,*,#306,.T.);
#169=ORIENTED_EDGE('',*,*,#298,.T.);
#170=ORIENTED_EDGE('',*,*,#300,.F.);
#171=ORIENTED_EDGE('',*,*,#307,.T.);
#172=ORIENTED_EDGE('',*,*,#308,.T.);
#173=ORIENTED_EDGE('',*,*,#309,.F.);
#174=ORIENTED_EDGE('',*,*,#310,.F.);
#175=ORIENTED_EDGE('',*,*,#311,.T.);
#176=ORIENTED_EDGE('',*,*,#312,.F.);
#177=ORIENTED_EDGE('',*,*,#313,.F.);
#178=ORIENTED_EDGE('',*,*,#310,.T.);
#179=ORIENTED_EDGE('',*,*,#314,.F.);
#180=ORIENTED_EDGE('',*,*,#248,.F.);
#181=ORIENTED_EDGE('',*,*,#315,.T.);
#182=ORIENTED_EDGE('',*,*,#312,.T.);
#183=ORIENTED_EDGE('',*,*,#307,.F.);
#184=ORIENTED_EDGE('',*,*,#313,.T.);
#185=ORIENTED_EDGE('',*,*,#315,.F.);
#186=ORIENTED_EDGE('',*,*,#247,.F.);
#187=ORIENTED_EDGE('',*,*,#265,.T.);
#188=ORIENTED_EDGE('',*,*,#316,.T.);
#189=ORIENTED_EDGE('',*,*,#262,.F.);
#190=ORIENTED_EDGE('',*,*,#309,.T.);
#191=ORIENTED_EDGE('',*,*,#317,.T.);
#192=ORIENTED_EDGE('',*,*,#263,.F.);
#193=ORIENTED_EDGE('',*,*,#249,.T.);
#194=ORIENTED_EDGE('',*,*,#314,.T.);
#195=ORIENTED_EDGE('',*,*,#311,.F.);
#196=ORIENTED_EDGE('',*,*,#304,.T.);
#197=ORIENTED_EDGE('',*,*,#316,.F.);
#198=ORIENTED_EDGE('',*,*,#264,.F.);
#199=ORIENTED_EDGE('',*,*,#317,.F.);
#200=ORIENTED_EDGE('',*,*,#308,.F.);
#201=ORIENTED_EDGE('',*,*,#318,.F.);
#202=ORIENTED_EDGE('',*,*,#319,.F.);
#203=ORIENTED_EDGE('',*,*,#320,.T.);
#204=ORIENTED_EDGE('',*,*,#321,.T.);
#205=ORIENTED_EDGE('',*,*,#322,.T.);
#206=ORIENTED_EDGE('',*,*,#257,.F.);
#207=ORIENTED_EDGE('',*,*,#323,.F.);
#208=ORIENTED_EDGE('',*,*,#319,.T.);
#209=ORIENTED_EDGE('',*,*,#324,.F.);
#210=ORIENTED_EDGE('',*,*,#325,.F.);
#211=ORIENTED_EDGE('',*,*,#326,.T.);
#212=ORIENTED_EDGE('',*,*,#242,.T.);
#213=ORIENTED_EDGE('',*,*,#327,.F.);
#214=ORIENTED_EDGE('',*,*,#328,.F.);
#215=ORIENTED_EDGE('',*,*,#329,.T.);
#216=ORIENTED_EDGE('',*,*,#325,.T.);
#217=ORIENTED_EDGE('',*,*,#330,.T.);
#218=ORIENTED_EDGE('',*,*,#321,.F.);
#219=ORIENTED_EDGE('',*,*,#331,.F.);
#220=ORIENTED_EDGE('',*,*,#328,.T.);
#221=ORIENTED_EDGE('',*,*,#260,.F.);
#222=ORIENTED_EDGE('',*,*,#320,.F.);
#223=ORIENTED_EDGE('',*,*,#323,.T.);
#224=ORIENTED_EDGE('',*,*,#256,.F.);
#225=ORIENTED_EDGE('',*,*,#243,.F.);
#226=ORIENTED_EDGE('',*,*,#326,.F.);
#227=ORIENTED_EDGE('',*,*,#329,.F.);
#228=ORIENTED_EDGE('',*,*,#331,.T.);
#229=ORIENTED_EDGE('',*,*,#305,.T.);
#230=ORIENTED_EDGE('',*,*,#318,.T.);
#231=ORIENTED_EDGE('',*,*,#330,.F.);
#232=ORIENTED_EDGE('',*,*,#327,.T.);
#233=ORIENTED_EDGE('',*,*,#324,.T.);
#234=ORIENTED_EDGE('',*,*,#241,.T.);
#235=ORIENTED_EDGE('',*,*,#258,.T.);
#236=ORIENTED_EDGE('',*,*,#322,.F.);
#237=ORIENTED_EDGE('',*,*,#278,.F.);
#238=ORIENTED_EDGE('',*,*,#302,.F.);
#239=ORIENTED_EDGE('',*,*,#291,.F.);
#240=ORIENTED_EDGE('',*,*,#254,.F.);
#241=EDGE_CURVE('',#332,#333,#398,.T.);
#242=EDGE_CURVE('',#334,#332,#399,.T.);
#243=EDGE_CURVE('',#334,#335,#400,.T.);
#244=EDGE_CURVE('',#336,#335,#401,.T.);
#245=EDGE_CURVE('',#337,#336,#402,.T.);
#246=EDGE_CURVE('',#337,#338,#403,.T.);
#247=EDGE_CURVE('',#338,#339,#404,.T.);
#248=EDGE_CURVE('',#339,#340,#405,.T.);
#249=EDGE_CURVE('',#341,#340,#406,.T.);
#250=EDGE_CURVE('',#341,#342,#407,.T.);
#251=EDGE_CURVE('',#342,#343,#408,.T.);
#252=EDGE_CURVE('',#333,#343,#409,.T.);
#253=EDGE_CURVE('',#343,#344,#410,.T.);
#254=EDGE_CURVE('',#344,#345,#411,.T.);
#255=EDGE_CURVE('',#336,#345,#412,.T.);
#256=EDGE_CURVE('',#335,#346,#413,.T.);
#257=EDGE_CURVE('',#346,#347,#414,.T.);
#258=EDGE_CURVE('',#333,#347,#415,.T.);
#259=EDGE_CURVE('',#348,#348,#12,.T.);
#260=EDGE_CURVE('',#349,#349,#13,.T.);
#261=EDGE_CURVE('',#350,#350,#14,.T.);
#262=EDGE_CURVE('',#351,#351,#15,.T.);
#263=EDGE_CURVE('',#341,#352,#16,.T.);
#264=EDGE_CURVE('',#352,#353,#416,.F.);
#265=EDGE_CURVE('',#338,#353,#17,.T.);
#266=EDGE_CURVE('',#337,#354,#18,.T.);
#267=EDGE_CURVE('',#354,#355,#417,.T.);
#268=EDGE_CURVE('',#342,#355,#19,.T.);
#269=EDGE_CURVE('',#356,#356,#20,.T.);
#270=EDGE_CURVE('',#357,#357,#21,.T.);
#271=EDGE_CURVE('',#358,#359,#418,.T.);
#272=EDGE_CURVE('',#360,#358,#419,.T.);
#273=EDGE_CURVE('',#361,#360,#420,.T.);
#274=EDGE_CURVE('',#362,#361,#421,.T.);
#275=EDGE_CURVE('',#363,#362,#422,.T.);
#276=EDGE_CURVE('',#359,#363,#423,.T.);
#277=EDGE_CURVE('',#364,#365,#424,.T.);
#278=EDGE_CURVE('',#364,#344,#425,.T.);
#279=EDGE_CURVE('',#366,#355,#426,.T.);
#280=EDGE_CURVE('',#367,#366,#427,.T.);
#281=EDGE_CURVE('',#367,#359,#428,.T.);
#282=EDGE_CURVE('',#363,#365,#429,.T.);
#283=EDGE_CURVE('',#368,#368,#22,.T.);
#284=EDGE_CURVE('',#369,#369,#23,.T.);
#285=EDGE_CURVE('',#365,#370,#430,.T.);
#286=EDGE_CURVE('',#362,#370,#431,.T.);
#287=EDGE_CURVE('',#370,#371,#432,.T.);
#288=EDGE_CURVE('',#361,#371,#433,.T.);
#289=EDGE_CURVE('',#371,#372,#434,.T.);
#290=EDGE_CURVE('',#360,#372,#435,.T.);
#291=EDGE_CURVE('',#345,#373,#436,.T.);
#292=EDGE_CURVE('',#372,#373,#437,.T.);
#293=EDGE_CURVE('',#374,#358,#438,.T.);
#294=EDGE_CURVE('',#374,#375,#439,.T.);
#295=EDGE_CURVE('',#375,#354,#440,.T.);
#296=EDGE_CURVE('',#376,#376,#24,.T.);
#297=EDGE_CURVE('',#377,#377,#25,.T.);
#298=EDGE_CURVE('',#378,#378,#26,.T.);
#299=EDGE_CURVE('',#379,#379,#27,.T.);
#300=EDGE_CURVE('',#380,#380,#28,.T.);
#301=EDGE_CURVE('',#381,#381,#29,.T.);
#302=EDGE_CURVE('',#373,#364,#441,.T.);
#303=EDGE_CURVE('',#374,#367,#442,.T.);
#304=EDGE_CURVE('',#382,#382,#30,.T.);
#305=EDGE_CURVE('',#383,#383,#31,.T.);
#306=EDGE_CURVE('',#375,#366,#443,.T.);
#307=EDGE_CURVE('',#384,#385,#32,.T.);
#308=EDGE_CURVE('',#385,#386,#444,.T.);
#309=EDGE_CURVE('',#387,#386,#33,.T.);
#310=EDGE_CURVE('',#384,#387,#445,.T.);
#311=EDGE_CURVE('',#387,#388,#34,.T.);
#312=EDGE_CURVE('',#389,#388,#446,.T.);
#313=EDGE_CURVE('',#384,#389,#35,.T.);
#314=EDGE_CURVE('',#340,#388,#447,.T.);
#315=EDGE_CURVE('',#339,#389,#448,.T.);
#316=EDGE_CURVE('',#353,#385,#36,.F.);
#317=EDGE_CURVE('',#386,#352,#37,.T.);
#318=EDGE_CURVE('',#390,#391,#38,.T.);
#319=EDGE_CURVE('',#392,#390,#449,.T.);
#320=EDGE_CURVE('',#392,#393,#39,.T.);
#321=EDGE_CURVE('',#393,#391,#450,.T.);
#322=EDGE_CURVE('',#390,#347,#451,.T.);
#323=EDGE_CURVE('',#392,#346,#452,.T.);
#324=EDGE_CURVE('',#394,#332,#453,.T.);
#325=EDGE_CURVE('',#395,#394,#454,.T.);
#326=EDGE_CURVE('',#395,#334,#455,.T.);
#327=EDGE_CURVE('',#396,#394,#40,.T.);
#328=EDGE_CURVE('',#397,#396,#456,.T.);
#329=EDGE_CURVE('',#397,#395,#41,.T.);
#330=EDGE_CURVE('',#396,#391,#42,.T.);
#331=EDGE_CURVE('',#397,#393,#43,.T.);
#332=VERTEX_POINT('',#977);
#333=VERTEX_POINT('',#978);
#334=VERTEX_POINT('',#980);
#335=VERTEX_POINT('',#982);
#336=VERTEX_POINT('',#984);
#337=VERTEX_POINT('',#986);
#338=VERTEX_POINT('',#988);
#339=VERTEX_POINT('',#990);
#340=VERTEX_POINT('',#992);
#341=VERTEX_POINT('',#994);
#342=VERTEX_POINT('',#996);
#343=VERTEX_POINT('',#998);
#344=VERTEX_POINT('',#1002);
#345=VERTEX_POINT('',#1004);
#346=VERTEX_POINT('',#1007);
#347=VERTEX_POINT('',#1009);
#348=VERTEX_POINT('',#1013);
#349=VERTEX_POINT('',#1015);
#350=VERTEX_POINT('',#1018);
#351=VERTEX_POINT('',#1020);
#352=VERTEX_POINT('',#1023);
#353=VERTEX_POINT('',#1025);
#354=VERTEX_POINT('',#1028);
#355=VERTEX_POINT('',#1030);
#356=VERTEX_POINT('',#1034);
#357=VERTEX_POINT('',#1036);
#358=VERTEX_POINT('',#1038);
#359=VERTEX_POINT('',#1039);
#360=VERTEX_POINT('',#1041);
#361=VERTEX_POINT('',#1043);
#362=VERTEX_POINT('',#1045);
#363=VERTEX_POINT('',#1047);
#364=VERTEX_POINT('',#1051);
#365=VERTEX_POINT('',#1052);
#366=VERTEX_POINT('',#1055);
#367=VERTEX_POINT('',#1057);
#368=VERTEX_POINT('',#1061);
#369=VERTEX_POINT('',#1063);
#370=VERTEX_POINT('',#1066);
#371=VERTEX_POINT('',#1070);
#372=VERTEX_POINT('',#1074);
#373=VERTEX_POINT('',#1078);
#374=VERTEX_POINT('',#1081);
#375=VERTEX_POINT('',#1083);
#376=VERTEX_POINT('',#1087);
#377=VERTEX_POINT('',#1090);
#378=VERTEX_POINT('',#1093);
#379=VERTEX_POINT('',#1095);
#380=VERTEX_POINT('',#1098);
#381=VERTEX_POINT('',#1100);
#382=VERTEX_POINT('',#1107);
#383=VERTEX_POINT('',#1110);
#384=VERTEX_POINT('',#1118);
#385=VERTEX_POINT('',#1119);
#386=VERTEX_POINT('',#1121);
#387=VERTEX_POINT('',#1123);
#388=VERTEX_POINT('',#1127);
#389=VERTEX_POINT('',#1129);
#390=VERTEX_POINT('',#1141);
#391=VERTEX_POINT('',#1142);
#392=VERTEX_POINT('',#1144);
#393=VERTEX_POINT('',#1146);
#394=VERTEX_POINT('',#1153);
#395=VERTEX_POINT('',#1155);
#396=VERTEX_POINT('',#1159);
#397=VERTEX_POINT('',#1161);
#398=LINE('',#976,#457);
#399=LINE('',#979,#458);
#400=LINE('',#981,#459);
#401=LINE('',#983,#460);
#402=LINE('',#985,#461);
#403=LINE('',#987,#462);
#404=LINE('',#989,#463);
#405=LINE('',#991,#464);
#406=LINE('',#993,#465);
#407=LINE('',#995,#466);
#408=LINE('',#997,#467);
#409=LINE('',#999,#468);
#410=LINE('',#1001,#469);
#411=LINE('',#1003,#470);
#412=LINE('',#1005,#471);
#413=LINE('',#1006,#472);
#414=LINE('',#1008,#473);
#415=LINE('',#1010,#474);
#416=LINE('',#1024,#475);
#417=LINE('',#1029,#476);
#418=LINE('',#1037,#477);
#419=LINE('',#1040,#478);
#420=LINE('',#1042,#479);
#421=LINE('',#1044,#480);
#422=LINE('',#1046,#481);
#423=LINE('',#1048,#482);
#424=LINE('',#1050,#483);
#425=LINE('',#1053,#484);
#426=LINE('',#1054,#485);
#427=LINE('',#1056,#486);
#428=LINE('',#1058,#487);
#429=LINE('',#1059,#488);
#430=LINE('',#1065,#489);
#431=LINE('',#1067,#490);
#432=LINE('',#1069,#491);
#433=LINE('',#1071,#492);
#434=LINE('',#1073,#493);
#435=LINE('',#1075,#494);
#436=LINE('',#1077,#495);
#437=LINE('',#1079,#496);
#438=LINE('',#1080,#497);
#439=LINE('',#1082,#498);
#440=LINE('',#1084,#499);
#441=LINE('',#1102,#500);
#442=LINE('',#1104,#501);
#443=LINE('',#1112,#502);
#444=LINE('',#1120,#503);
#445=LINE('',#1124,#504);
#446=LINE('',#1128,#505);
#447=LINE('',#1132,#506);
#448=LINE('',#1133,#507);
#449=LINE('',#1143,#508);
#450=LINE('',#1147,#509);
#451=LINE('',#1149,#510);
#452=LINE('',#1150,#511);
#453=LINE('',#1152,#512);
#454=LINE('',#1154,#513);
#455=LINE('',#1156,#514);
#456=LINE('',#1160,#515);
#457=VECTOR('',#779,1.);
#458=VECTOR('',#780,1.);
#459=VECTOR('',#781,1.);
#460=VECTOR('',#782,1.);
#461=VECTOR('',#783,1.);
#462=VECTOR('',#784,1.);
#463=VECTOR('',#785,1.);
#464=VECTOR('',#786,1.);
#465=VECTOR('',#787,1.);
#466=VECTOR('',#788,1.);
#467=VECTOR('',#789,1.);
#468=VECTOR('',#790,1.);
#469=VECTOR('',#793,1.);
#470=VECTOR('',#794,1.);
#471=VECTOR('',#795,1.);
#472=VECTOR('',#796,1.);
#473=VECTOR('',#797,1.);
#474=VECTOR('',#798,1.);
#475=VECTOR('',#815,1.);
#476=VECTOR('',#820,1.);
#477=VECTOR('',#829,1.);
#478=VECTOR('',#830,1.);
#479=VECTOR('',#831,1.);
#480=VECTOR('',#832,1.);
#481=VECTOR('',#833,1.);
#482=VECTOR('',#834,1.);
#483=VECTOR('',#837,1.);
#484=VECTOR('',#838,1.);
#485=VECTOR('',#839,1.);
#486=VECTOR('',#840,1.);
#487=VECTOR('',#841,1.);
#488=VECTOR('',#842,1.);
#489=VECTOR('',#849,1.);
#490=VECTOR('',#850,1.);
#491=VECTOR('',#853,1.);
#492=VECTOR('',#854,1.);
#493=VECTOR('',#857,1.);
#494=VECTOR('',#858,1.);
#495=VECTOR('',#861,1.);
#496=VECTOR('',#862,1.);
#497=VECTOR('',#863,1.);
#498=VECTOR('',#864,1.);
#499=VECTOR('',#865,1.);
#500=VECTOR('',#888,1.);
#501=VECTOR('',#891,1.);
#502=VECTOR('',#902,1.);
#503=VECTOR('',#913,1.);
#504=VECTOR('',#916,1.);
#505=VECTOR('',#921,1.);
#506=VECTOR('',#926,1.);
#507=VECTOR('',#927,1.);
#508=VECTOR('',#942,1.);
#509=VECTOR('',#945,1.);
#510=VECTOR('',#948,1.);
#511=VECTOR('',#949,1.);
#512=VECTOR('',#952,1.);
#513=VECTOR('',#953,1.);
#514=VECTOR('',#954,1.);
#515=VECTOR('',#959,1.);
#516=EDGE_LOOP('',(#59,#60,#61,#62,#63,#64,#65,#66,#67,#68,#69,#70));
#517=EDGE_LOOP('',(#71,#72,#73,#74,#75,#76,#77,#78));
#518=EDGE_LOOP('',(#79));
#519=EDGE_LOOP('',(#80));
#520=EDGE_LOOP('',(#81));
#521=EDGE_LOOP('',(#82));
#522=EDGE_LOOP('',(#83,#84,#85,#86,#87,#88,#89,#90));
#523=EDGE_LOOP('',(#91));
#524=EDGE_LOOP('',(#92));
#525=EDGE_LOOP('',(#93,#94,#95,#96,#97,#98));
#526=EDGE_LOOP('',(#99,#100,#101,#102,#103,#104,#105,#106,#107,#108));
#527=EDGE_LOOP('',(#109));
#528=EDGE_LOOP('',(#110));
#529=EDGE_LOOP('',(#111,#112,#113,#114));
#530=EDGE_LOOP('',(#115,#116,#117,#118));
#531=EDGE_LOOP('',(#119,#120,#121,#122));
#532=EDGE_LOOP('',(#123,#124,#125,#126,#127,#128,#129,#130,#131,#132));
#533=EDGE_LOOP('',(#133));
#534=EDGE_LOOP('',(#134));
#535=EDGE_LOOP('',(#135));
#536=EDGE_LOOP('',(#136));
#537=EDGE_LOOP('',(#137));
#538=EDGE_LOOP('',(#138));
#539=EDGE_LOOP('',(#139));
#540=EDGE_LOOP('',(#140));
#541=EDGE_LOOP('',(#141));
#542=EDGE_LOOP('',(#142));
#543=EDGE_LOOP('',(#143,#144,#145,#146,#147,#148));
#544=EDGE_LOOP('',(#149));
#545=EDGE_LOOP('',(#150));
#546=EDGE_LOOP('',(#151));
#547=EDGE_LOOP('',(#152));
#548=EDGE_LOOP('',(#153,#154,#155,#156));
#549=EDGE_LOOP('',(#157));
#550=EDGE_LOOP('',(#158));
#551=EDGE_LOOP('',(#159));
#552=EDGE_LOOP('',(#160));
#553=EDGE_LOOP('',(#161,#162,#163,#164));
#554=EDGE_LOOP('',(#165,#166,#167,#168));
#555=EDGE_LOOP('',(#169));
#556=EDGE_LOOP('',(#170));
#557=EDGE_LOOP('',(#171,#172,#173,#174));
#558=EDGE_LOOP('',(#175,#176,#177,#178));
#559=EDGE_LOOP('',(#179,#180,#181,#182));
#560=EDGE_LOOP('',(#183,#184,#185,#186,#187,#188));
#561=EDGE_LOOP('',(#189));
#562=EDGE_LOOP('',(#190,#191,#192,#193,#194,#195));
#563=EDGE_LOOP('',(#196));
#564=EDGE_LOOP('',(#197,#198,#199,#200));
#565=EDGE_LOOP('',(#201,#202,#203,#204));
#566=EDGE_LOOP('',(#205,#206,#207,#208));
#567=EDGE_LOOP('',(#209,#210,#211,#212));
#568=EDGE_LOOP('',(#213,#214,#215,#216));
#569=EDGE_LOOP('',(#217,#218,#219,#220));
#570=EDGE_LOOP('',(#221));
#571=EDGE_LOOP('',(#222,#223,#224,#225,#226,#227,#228));
#572=EDGE_LOOP('',(#229));
#573=EDGE_LOOP('',(#230,#231,#232,#233,#234,#235,#236));
#574=EDGE_LOOP('',(#237,#238,#239,#240));
#575=FACE_BOUND('',#516,.T.);
#576=FACE_BOUND('',#517,.T.);
#577=FACE_BOUND('',#518,.T.);
#578=FACE_BOUND('',#519,.T.);
#579=FACE_BOUND('',#520,.T.);
#580=FACE_BOUND('',#521,.T.);
#581=FACE_BOUND('',#522,.T.);
#582=FACE_BOUND('',#523,.T.);
#583=FACE_BOUND('',#524,.T.);
#584=FACE_BOUND('',#525,.T.);
#585=FACE_BOUND('',#526,.T.);
#586=FACE_BOUND('',#527,.T.);
#587=FACE_BOUND('',#528,.T.);
#588=FACE_BOUND('',#529,.T.);
#589=FACE_BOUND('',#530,.T.);
#590=FACE_BOUND('',#531,.T.);
#591=FACE_BOUND('',#532,.T.);
#592=FACE_BOUND('',#533,.T.);
#593=FACE_BOUND('',#534,.T.);
#594=FACE_BOUND('',#535,.T.);
#595=FACE_BOUND('',#536,.T.);
#596=FACE_BOUND('',#537,.T.);
#597=FACE_BOUND('',#538,.T.);
#598=FACE_BOUND('',#539,.T.);
#599=FACE_BOUND('',#540,.T.);
#600=FACE_BOUND('',#541,.T.);
#601=FACE_BOUND('',#542,.T.);
#602=FACE_BOUND('',#543,.T.);
#603=FACE_BOUND('',#544,.T.);
#604=FACE_BOUND('',#545,.T.);
#605=FACE_BOUND('',#546,.T.);
#606=FACE_BOUND('',#547,.T.);
#607=FACE_BOUND('',#548,.T.);
#608=FACE_BOUND('',#549,.T.);
#609=FACE_BOUND('',#550,.T.);
#610=FACE_BOUND('',#551,.T.);
#611=FACE_BOUND('',#552,.T.);
#612=FACE_BOUND('',#553,.T.);
#613=FACE_BOUND('',#554,.T.);
#614=FACE_BOUND('',#555,.T.);
#615=FACE_BOUND('',#556,.T.);
#616=FACE_BOUND('',#557,.T.);
#617=FACE_BOUND('',#558,.T.);
#618=FACE_BOUND('',#559,.T.);
#619=FACE_BOUND('',#560,.T.);
#620=FACE_BOUND('',#561,.T.);
#621=FACE_BOUND('',#562,.T.);
#622=FACE_BOUND('',#563,.T.);
#623=FACE_BOUND('',#564,.T.);
#624=FACE_BOUND('',#565,.T.);
#625=FACE_BOUND('',#566,.T.);
#626=FACE_BOUND('',#567,.T.);
#627=FACE_BOUND('',#568,.T.);
#628=FACE_BOUND('',#569,.T.);
#629=FACE_BOUND('',#570,.T.);
#630=FACE_BOUND('',#571,.T.);
#631=FACE_BOUND('',#572,.T.);
#632=FACE_BOUND('',#573,.T.);
#633=FACE_BOUND('',#574,.T.);
#634=PLANE('',#706);
#635=PLANE('',#707);
#636=PLANE('',#719);
#637=PLANE('',#722);
#638=PLANE('',#725);
#639=PLANE('',#726);
#640=PLANE('',#727);
#641=PLANE('',#728);
#642=PLANE('',#739);
#643=PLANE('',#740);
#644=PLANE('',#745);
#645=PLANE('',#746);
#646=PLANE('',#747);
#647=PLANE('',#748);
#648=PLANE('',#755);
#649=PLANE('',#756);
#650=PLANE('',#758);
#651=PLANE('',#764);
#652=PLANE('',#765);
#653=PLANE('',#772);
#654=PLANE('',#773);
#655=PLANE('',#774);
#656=ADVANCED_FACE('',(#575),#634,.F.);
#657=ADVANCED_FACE('',(#576),#635,.F.);
#658=ADVANCED_FACE('',(#577,#578),#44,.F.);
#659=ADVANCED_FACE('',(#579,#580),#45,.F.);
#660=ADVANCED_FACE('',(#581),#46,.T.);
#661=ADVANCED_FACE('',(#582,#583,#584),#636,.F.);
#662=ADVANCED_FACE('',(#585,#586,#587),#637,.T.);
#663=ADVANCED_FACE('',(#588),#638,.T.);
#664=ADVANCED_FACE('',(#589),#639,.T.);
#665=ADVANCED_FACE('',(#590),#640,.T.);
#666=ADVANCED_FACE('',(#591,#592,#593),#641,.T.);
#667=ADVANCED_FACE('',(#594,#595),#47,.F.);
#668=ADVANCED_FACE('',(#596,#597),#48,.F.);
#669=ADVANCED_FACE('',(#598,#599),#49,.F.);
#670=ADVANCED_FACE('',(#600,#601),#50,.F.);
#671=ADVANCED_FACE('',(#602,#603,#604,#605,#606),#642,.T.);
#672=ADVANCED_FACE('',(#607),#643,.T.);
#673=ADVANCED_FACE('',(#608,#609),#51,.F.);
#674=ADVANCED_FACE('',(#610,#611),#52,.F.);
#675=ADVANCED_FACE('',(#612),#644,.F.);
#676=ADVANCED_FACE('',(#613),#645,.F.);
#677=ADVANCED_FACE('',(#614),#646,.F.);
#678=ADVANCED_FACE('',(#615),#647,.F.);
#679=ADVANCED_FACE('',(#616),#53,.T.);
#680=ADVANCED_FACE('',(#617),#54,.F.);
#681=ADVANCED_FACE('',(#618),#648,.T.);
#682=ADVANCED_FACE('',(#619,#620),#649,.T.);
#683=ADVANCED_FACE('',(#621,#622),#650,.F.);
#684=ADVANCED_FACE('',(#623),#55,.T.);
#685=ADVANCED_FACE('',(#624),#56,.T.);
#686=ADVANCED_FACE('',(#625),#651,.F.);
#687=ADVANCED_FACE('',(#626),#652,.T.);
#688=ADVANCED_FACE('',(#627),#57,.T.);
#689=ADVANCED_FACE('',(#628),#58,.F.);
#690=ADVANCED_FACE('',(#629,#630),#653,.T.);
#691=ADVANCED_FACE('',(#631,#632),#654,.F.);
#692=ADVANCED_FACE('',(#633),#655,.T.);
#693=CLOSED_SHELL('',(#656,#657,#658,#659,#660,#661,#662,#663,#664,#665,
#666,#667,#668,#669,#670,#671,#672,#673,#674,#675,#676,#677,#678,#679,#680,
#681,#682,#683,#684,#685,#686,#687,#688,#689,#690,#691,#692));
#694=STYLED_ITEM('',(#695),#702);
#695=PRESENTATION_STYLE_ASSIGNMENT((#696));
#696=SURFACE_STYLE_USAGE(.BOTH.,#697);
#697=SURFACE_SIDE_STYLE('',(#698));
#698=SURFACE_STYLE_FILL_AREA(#699);
#699=FILL_AREA_STYLE('',(#700));
#700=FILL_AREA_STYLE_COLOUR('',#701);
#701=COLOUR_RGB('',0.615686274509804,0.811764705882353,0.929411764705882);
#702=MANIFOLD_SOLID_BREP('Part 1',#693);
#703=SHAPE_DEFINITION_REPRESENTATION(#1175,#704);
#704=SHAPE_REPRESENTATION('Part 1',(#705),#1170);
#705=AXIS2_PLACEMENT_3D('',#974,#775,#776);
#706=AXIS2_PLACEMENT_3D('',#975,#777,#778);
#707=AXIS2_PLACEMENT_3D('',#1000,#791,#792);
#708=AXIS2_PLACEMENT_3D('',#1011,#799,#800);
#709=AXIS2_PLACEMENT_3D('',#1012,#801,#802);
#710=AXIS2_PLACEMENT_3D('',#1014,#803,#804);
#711=AXIS2_PLACEMENT_3D('',#1016,#805,#806);
#712=AXIS2_PLACEMENT_3D('',#1017,#807,#808);
#713=AXIS2_PLACEMENT_3D('',#1019,#809,#810);
#714=AXIS2_PLACEMENT_3D('',#1021,#811,#812);
#715=AXIS2_PLACEMENT_3D('',#1022,#813,#814);
#716=AXIS2_PLACEMENT_3D('',#1026,#816,#817);
#717=AXIS2_PLACEMENT_3D('',#1027,#818,#819);
#718=AXIS2_PLACEMENT_3D('',#1031,#821,#822);
#719=AXIS2_PLACEMENT_3D('',#1032,#823,#824);
#720=AXIS2_PLACEMENT_3D('',#1033,#825,#826);
#721=AXIS2_PLACEMENT_3D('',#1035,#827,#828);
#722=AXIS2_PLACEMENT_3D('',#1049,#835,#836);
#723=AXIS2_PLACEMENT_3D('',#1060,#843,#844);
#724=AXIS2_PLACEMENT_3D('',#1062,#845,#846);
#725=AXIS2_PLACEMENT_3D('',#1064,#847,#848);
#726=AXIS2_PLACEMENT_3D('',#1068,#851,#852);
#727=AXIS2_PLACEMENT_3D('',#1072,#855,#856);
#728=AXIS2_PLACEMENT_3D('',#1076,#859,#860);
#729=AXIS2_PLACEMENT_3D('',#1085,#866,#867);
#730=AXIS2_PLACEMENT_3D('',#1086,#868,#869);
#731=AXIS2_PLACEMENT_3D('',#1088,#870,#871);
#732=AXIS2_PLACEMENT_3D('',#1089,#872,#873);
#733=AXIS2_PLACEMENT_3D('',#1091,#874,#875);
#734=AXIS2_PLACEMENT_3D('',#1092,#876,#877);
#735=AXIS2_PLACEMENT_3D('',#1094,#878,#879);
#736=AXIS2_PLACEMENT_3D('',#1096,#880,#881);
#737=AXIS2_PLACEMENT_3D('',#1097,#882,#883);
#738=AXIS2_PLACEMENT_3D('',#1099,#884,#885);
#739=AXIS2_PLACEMENT_3D('',#1101,#886,#887);
#740=AXIS2_PLACEMENT_3D('',#1103,#889,#890);
#741=AXIS2_PLACEMENT_3D('',#1105,#892,#893);
#742=AXIS2_PLACEMENT_3D('',#1106,#894,#895);
#743=AXIS2_PLACEMENT_3D('',#1108,#896,#897);
#744=AXIS2_PLACEMENT_3D('',#1109,#898,#899);
#745=AXIS2_PLACEMENT_3D('',#1111,#900,#901);
#746=AXIS2_PLACEMENT_3D('',#1113,#903,#904);
#747=AXIS2_PLACEMENT_3D('',#1114,#905,#906);
#748=AXIS2_PLACEMENT_3D('',#1115,#907,#908);
#749=AXIS2_PLACEMENT_3D('',#1116,#909,#910);
#750=AXIS2_PLACEMENT_3D('',#1117,#911,#912);
#751=AXIS2_PLACEMENT_3D('',#1122,#914,#915);
#752=AXIS2_PLACEMENT_3D('',#1125,#917,#918);
#753=AXIS2_PLACEMENT_3D('',#1126,#919,#920);
#754=AXIS2_PLACEMENT_3D('',#1130,#922,#923);
#755=AXIS2_PLACEMENT_3D('',#1131,#924,#925);
#756=AXIS2_PLACEMENT_3D('',#1134,#928,#929);
#757=AXIS2_PLACEMENT_3D('',#1135,#930,#931);
#758=AXIS2_PLACEMENT_3D('',#1136,#932,#933);
#759=AXIS2_PLACEMENT_3D('',#1137,#934,#935);
#760=AXIS2_PLACEMENT_3D('',#1138,#936,#937);
#761=AXIS2_PLACEMENT_3D('',#1139,#938,#939);
#762=AXIS2_PLACEMENT_3D('',#1140,#940,#941);
#763=AXIS2_PLACEMENT_3D('',#1145,#943,#944);
#764=AXIS2_PLACEMENT_3D('',#1148,#946,#947);
#765=AXIS2_PLACEMENT_3D('',#1151,#950,#951);
#766=AXIS2_PLACEMENT_3D('',#1157,#955,#956);
#767=AXIS2_PLACEMENT_3D('',#1158,#957,#958);
#768=AXIS2_PLACEMENT_3D('',#1162,#960,#961);
#769=AXIS2_PLACEMENT_3D('',#1163,#962,#963);
#770=AXIS2_PLACEMENT_3D('',#1164,#964,#965);
#771=AXIS2_PLACEMENT_3D('',#1165,#966,#967);
#772=AXIS2_PLACEMENT_3D('',#1166,#968,#969);
#773=AXIS2_PLACEMENT_3D('',#1167,#970,#971);
#774=AXIS2_PLACEMENT_3D('',#1168,#972,#973);
#775=DIRECTION('',(0.,0.,1.));
#776=DIRECTION('',(1.,0.,0.));
#777=DIRECTION('',(-0.984543889630874,0.175138029538159,0.));
#778=DIRECTION('',(-0.175138029538159,-0.984543889630874,0.));
#779=DIRECTION('',(-0.175138029538159,-0.984543889630874,0.));
#780=DIRECTION('',(0.,0.,1.));
#781=DIRECTION('',(-0.175138029538159,-0.984543889630874,0.));
#782=DIRECTION('',(0.,0.,1.));
#783=DIRECTION('',(-0.175138029538159,-0.984543889630874,0.));
#784=DIRECTION('',(0.,0.,1.));
#785=DIRECTION('',(-0.175138029538159,-0.984543889630874,0.));
#786=DIRECTION('',(0.,0.,1.));
#787=DIRECTION('',(-0.175138029538159,-0.984543889630874,0.));
#788=DIRECTION('',(0.,0.,1.));
#789=DIRECTION('',(-0.175138029538159,-0.984543889630874,0.));
#790=DIRECTION('',(0.,0.,1.));
#791=DIRECTION('',(-1.,0.,0.));
#792=DIRECTION('',(0.,0.,1.));
#793=DIRECTION('',(0.,-1.,0.));
#794=DIRECTION('',(0.,0.,-1.));
#795=DIRECTION('',(0.,-1.,0.));
#796=DIRECTION('',(0.,-1.,0.));
#797=DIRECTION('',(0.,0.,1.));
#798=DIRECTION('',(0.,-1.,0.));
#799=DIRECTION('',(0.,0.,1.));
#800=DIRECTION('',(1.,0.,0.));
#801=DIRECTION('',(0.,0.,1.));
#802=DIRECTION('',(1.,0.,0.));
#803=DIRECTION('',(0.,0.,1.));
#804=DIRECTION('',(1.,0.,0.));
#805=DIRECTION('',(0.,0.,1.));
#806=DIRECTION('',(1.,0.,0.));
#807=DIRECTION('',(0.,0.,1.));
#808=DIRECTION('',(1.,0.,0.));
#809=DIRECTION('',(0.,0.,1.));
#810=DIRECTION('',(1.,0.,0.));
#811=DIRECTION('',(0.,0.,1.));
#812=DIRECTION('',(1.,0.,0.));
#813=DIRECTION('',(0.,0.,1.));
#814=DIRECTION('',(1.,0.,0.));
#815=DIRECTION('',(0.,0.,1.));
#816=DIRECTION('',(0.,0.,1.));
#817=DIRECTION('',(1.,0.,0.));
#818=DIRECTION('',(0.,0.,1.));
#819=DIRECTION('',(1.,0.,0.));
#820=DIRECTION('',(0.,0.,1.));
#821=DIRECTION('',(0.,0.,1.));
#822=DIRECTION('',(1.,0.,0.));
#823=DIRECTION('',(0.,-1.,0.));
#824=DIRECTION('',(1.,0.,0.));
#825=DIRECTION('',(0.,1.,0.));
#826=DIRECTION('',(0.,0.,-1.));
#827=DIRECTION('',(0.,-1.,0.));
#828=DIRECTION('',(0.,0.,-1.));
#829=DIRECTION('',(0.,0.,1.));
#830=DIRECTION('',(1.,0.,0.));
#831=DIRECTION('',(0.711933504667743,0.,-0.702246883176782));
#832=DIRECTION('',(0.,0.,-1.));
#833=DIRECTION('',(-0.711933504667743,0.,-0.702246883176782));
#834=DIRECTION('',(-1.,0.,0.));
#835=DIRECTION('',(0.,0.,1.));
#836=DIRECTION('',(1.,0.,0.));
#837=DIRECTION('',(-1.,0.,0.));
#838=DIRECTION('',(0.707106781186548,0.707106781186547,0.));
#839=DIRECTION('',(0.262015537794135,0.965063654871766,0.));
#840=DIRECTION('',(0.,1.,0.));
#841=DIRECTION('',(-0.707106781186548,-0.707106781186548,0.));
#842=DIRECTION('',(0.,-1.,0.));
#843=DIRECTION('',(0.,0.,1.));
#844=DIRECTION('',(1.,0.,0.));
#845=DIRECTION('',(0.,0.,1.));
#846=DIRECTION('',(1.,0.,0.));
#847=DIRECTION('',(-0.702246883176782,0.,0.711933504667743));
#848=DIRECTION('',(0.711933504667743,0.,0.702246883176782));
#849=DIRECTION('',(-0.711933504667743,0.,-0.702246883176782));
#850=DIRECTION('',(0.,-1.,0.));
#851=DIRECTION('',(-1.,0.,0.));
#852=DIRECTION('',(0.,0.,1.));
#853=DIRECTION('',(0.,0.,-1.));
#854=DIRECTION('',(0.,-1.,0.));
#855=DIRECTION('',(-0.702246883176782,0.,-0.711933504667743));
#856=DIRECTION('',(-0.711933504667743,0.,0.702246883176782));
#857=DIRECTION('',(0.711933504667743,0.,-0.702246883176782));
#858=DIRECTION('',(0.,-1.,0.));
#859=DIRECTION('',(0.,0.,-1.));
#860=DIRECTION('',(-1.,0.,0.));
#861=DIRECTION('',(-0.707106781186548,-0.707106781186547,0.));
#862=DIRECTION('',(1.,0.,0.));
#863=DIRECTION('',(-0.707106781186548,-0.707106781186548,0.));
#864=DIRECTION('',(0.,1.,0.));
#865=DIRECTION('',(0.262015537794135,0.965063654871766,0.));
#866=DIRECTION('',(0.,-1.,0.));
#867=DIRECTION('',(0.,0.,-1.));
#868=DIRECTION('',(0.,-1.,0.));
#869=DIRECTION('',(0.,0.,-1.));
#870=DIRECTION('',(0.,-1.,0.));
#871=DIRECTION('',(0.,0.,-1.));
#872=DIRECTION('',(0.,1.,0.));
#873=DIRECTION('',(0.,0.,-1.));
#874=DIRECTION('',(0.,-1.,0.));
#875=DIRECTION('',(0.,0.,-1.));
#876=DIRECTION('',(0.,-1.,0.));
#877=DIRECTION('',(0.,0.,-1.));
#878=DIRECTION('',(0.,-1.,0.));
#879=DIRECTION('',(0.,0.,-1.));
#880=DIRECTION('',(0.,-1.,0.));
#881=DIRECTION('',(0.,0.,-1.));
#882=DIRECTION('',(0.,1.,0.));
#883=DIRECTION('',(0.,0.,-1.));
#884=DIRECTION('',(0.,1.,0.));
#885=DIRECTION('',(0.,0.,-1.));
#886=DIRECTION('',(0.,-1.,0.));
#887=DIRECTION('',(1.,0.,0.));
#888=DIRECTION('',(0.,0.,1.));
#889=DIRECTION('',(-0.707106781186548,0.707106781186548,0.));
#890=DIRECTION('',(-0.707106781186548,-0.707106781186548,0.));
#891=DIRECTION('',(0.,0.,1.));
#892=DIRECTION('',(0.,0.,1.));
#893=DIRECTION('',(1.,0.,0.));
#894=DIRECTION('',(0.,0.,1.));
#895=DIRECTION('',(1.,0.,0.));
#896=DIRECTION('',(0.,0.,1.));
#897=DIRECTION('',(1.,0.,0.));
#898=DIRECTION('',(0.,0.,1.));
#899=DIRECTION('',(1.,0.,0.));
#900=DIRECTION('',(1.,0.,0.));
#901=DIRECTION('',(0.,0.,-1.));
#902=DIRECTION('',(0.,0.,1.));
#903=DIRECTION('',(0.965063654871766,-0.262015537794135,0.));
#904=DIRECTION('',(0.262015537794135,0.965063654871766,0.));
#905=DIRECTION('',(0.,1.,0.));
#906=DIRECTION('',(0.,0.,1.));
#907=DIRECTION('',(0.,1.,0.));
#908=DIRECTION('',(0.,0.,1.));
#909=DIRECTION('',(0.,0.,1.));
#910=DIRECTION('',(1.,0.,0.));
#911=DIRECTION('',(0.,0.,1.));
#912=DIRECTION('',(1.,0.,0.));
#913=DIRECTION('',(0.,0.,1.));
#914=DIRECTION('',(0.,0.,1.));
#915=DIRECTION('',(1.,0.,0.));
#916=DIRECTION('',(0.,0.,1.));
#917=DIRECTION('',(0.,0.,1.));
#918=DIRECTION('',(1.,0.,0.));
#919=DIRECTION('',(0.,0.,1.));
#920=DIRECTION('',(1.,0.,0.));
#921=DIRECTION('',(0.,0.,1.));
#922=DIRECTION('',(0.,0.,1.));
#923=DIRECTION('',(1.,0.,0.));
#924=DIRECTION('',(0.908738730261056,0.417365451521234,0.));
#925=DIRECTION('',(-0.417365451521234,0.908738730261056,0.));
#926=DIRECTION('',(-0.417365451521234,0.908738730261056,0.));
#927=DIRECTION('',(-0.417365451521234,0.908738730261056,0.));
#928=DIRECTION('',(0.,0.,1.));
#929=DIRECTION('',(1.,0.,0.));
#930=DIRECTION('',(0.,0.,1.));
#931=DIRECTION('',(1.,0.,0.));
#932=DIRECTION('',(0.,0.,1.));
#933=DIRECTION('',(1.,0.,0.));
#934=DIRECTION('',(0.,0.,1.));
#935=DIRECTION('',(1.,0.,0.));
#936=DIRECTION('',(0.,0.,1.));
#937=DIRECTION('',(1.,0.,0.));
#938=DIRECTION('',(0.,0.,1.));
#939=DIRECTION('',(1.,0.,0.));
#940=DIRECTION('',(0.,0.,1.));
#941=DIRECTION('',(1.,0.,0.));
#942=DIRECTION('',(0.,0.,1.));
#943=DIRECTION('',(0.,0.,1.));
#944=DIRECTION('',(1.,0.,0.));
#945=DIRECTION('',(0.,0.,1.));
#946=DIRECTION('',(-0.914596976020261,-0.404366629996336,0.));
#947=DIRECTION('',(0.404366629996336,-0.914596976020261,0.));
#948=DIRECTION('',(0.404366629996336,-0.914596976020261,0.));
#949=DIRECTION('',(0.404366629996336,-0.914596976020261,0.));
#950=DIRECTION('',(0.852769344072603,-0.522287704057815,0.));
#951=DIRECTION('',(0.522287704057815,0.852769344072603,0.));
#952=DIRECTION('',(0.522287704057815,0.852769344072603,0.));
#953=DIRECTION('',(0.,0.,1.));
#954=DIRECTION('',(0.522287704057815,0.852769344072603,0.));
#955=DIRECTION('',(0.,0.,1.));
#956=DIRECTION('',(1.,0.,0.));
#957=DIRECTION('',(0.,0.,1.));
#958=DIRECTION('',(1.,0.,0.));
#959=DIRECTION('',(0.,0.,1.));
#960=DIRECTION('',(0.,0.,1.));
#961=DIRECTION('',(1.,0.,0.));
#962=DIRECTION('',(0.,0.,1.));
#963=DIRECTION('',(1.,0.,0.));
#964=DIRECTION('',(0.,0.,1.));
#965=DIRECTION('',(1.,0.,0.));
#966=DIRECTION('',(0.,0.,1.));
#967=DIRECTION('',(1.,0.,0.));
#968=DIRECTION('',(0.,0.,1.));
#969=DIRECTION('',(1.,0.,0.));
#970=DIRECTION('',(0.,0.,1.));
#971=DIRECTION('',(1.,0.,0.));
#972=DIRECTION('',(0.707106781186547,-0.707106781186548,0.));
#973=DIRECTION('',(0.,0.,1.));
#974=CARTESIAN_POINT('',(0.,0.,0.));
#975=CARTESIAN_POINT('',(0.0398563557739839,0.06444585,-3.08025466070477E-6));
#976=CARTESIAN_POINT('',(0.0398563557739839,0.06444585,0.0142469197453393));
#977=CARTESIAN_POINT('',(0.0387695124440041,0.0583361263589419,0.0142469197453393));
#978=CARTESIAN_POINT('',(0.0355393557739839,0.0401777,0.0142469197453393));
#979=CARTESIAN_POINT('',(0.0387695124440041,0.0583361263589419,0.0057469197453393));
#980=CARTESIAN_POINT('',(0.0387695124440041,0.0583361263589419,0.0057469197453393));
#981=CARTESIAN_POINT('',(0.0398563557739839,0.06444585,0.0057469197453393));
#982=CARTESIAN_POINT('',(0.0355393557739839,0.0401777,0.0057469197453393));
#983=CARTESIAN_POINT('',(0.0355393557739839,0.0401777,-3.08025466070477E-6));
#984=CARTESIAN_POINT('',(0.0355393557739839,0.0401777,-3.08025466070477E-6));
#985=CARTESIAN_POINT('',(0.0398563557739839,0.06444585,-3.08025466070477E-6));
#986=CARTESIAN_POINT('',(0.0441733557739839,0.088714,-3.08025466070477E-6));
#987=CARTESIAN_POINT('',(0.0441733557739839,0.088714,-3.08025466070477E-6));
#988=CARTESIAN_POINT('',(0.0441733557739839,0.088714,0.0057469197453393));
#989=CARTESIAN_POINT('',(0.0398563557739839,0.06444585,0.0057469197453393));
#990=CARTESIAN_POINT('',(0.0410602643528446,0.0712136595849152,0.0057469197453393));
#991=CARTESIAN_POINT('',(0.0410602643528446,0.0712136595849152,0.0057469197453393));
#992=CARTESIAN_POINT('',(0.0410602643528446,0.0712136595849152,0.0142469197453393));
#993=CARTESIAN_POINT('',(0.0398563557739839,0.06444585,0.0142469197453393));
#994=CARTESIAN_POINT('',(0.0441733557739839,0.088714,0.0142469197453393));
#995=CARTESIAN_POINT('',(0.0441733557739839,0.088714,-3.08025466070477E-6));
#996=CARTESIAN_POINT('',(0.0441733557739839,0.088714,0.0199969197453393));
#997=CARTESIAN_POINT('',(0.0398563557739839,0.06444585,0.0199969197453393));
#998=CARTESIAN_POINT('',(0.0355393557739839,0.0401777,0.0199969197453393));
#999=CARTESIAN_POINT('',(0.0355393557739839,0.0401777,-3.08025466070477E-6));
#1000=CARTESIAN_POINT('',(0.0355393557739839,0.02508885,-3.08025466070477E-6));
#1001=CARTESIAN_POINT('',(0.0355393557739839,0.02508885,0.0199969197453393));
#1002=CARTESIAN_POINT('',(0.0355393557739839,0.003,0.0199969197453393));
#1003=CARTESIAN_POINT('',(0.0355393557739839,0.003,-3.08025466070824E-6));
#1004=CARTESIAN_POINT('',(0.0355393557739839,0.003,-3.08025466070477E-6));
#1005=CARTESIAN_POINT('',(0.0355393557739839,0.02508885,-3.08025466070477E-6));
#1006=CARTESIAN_POINT('',(0.0355393557739839,0.02508885,0.0057469197453393));
#1007=CARTESIAN_POINT('',(0.0355393557739839,0.0219055894690707,0.0057469197453393));
#1008=CARTESIAN_POINT('',(0.0355393557739839,0.0219055894690707,0.0057469197453393));
#1009=CARTESIAN_POINT('',(0.0355393557739839,0.0219055894690707,0.0142469197453393));
#1010=CARTESIAN_POINT('',(0.0355393557739839,0.02508885,0.0142469197453393));
#1011=CARTESIAN_POINT('',(0.0325393557739839,0.04,-3.08025466070477E-6));
#1012=CARTESIAN_POINT('',(0.0325393557739839,0.04,-3.08025466070477E-6));
#1013=CARTESIAN_POINT('',(0.0346893557739839,0.04,-3.08025466070477E-6));
#1014=CARTESIAN_POINT('',(0.0325393557739839,0.04,0.0057469197453393));
#1015=CARTESIAN_POINT('',(0.0346893557739839,0.04,0.0057469197453393));
#1016=CARTESIAN_POINT('',(0.0412193557739838,0.08924,-3.08025466070477E-6));
#1017=CARTESIAN_POINT('',(0.0412193557739838,0.08924,-3.08025466070477E-6));
#1018=CARTESIAN_POINT('',(0.0433693557739838,0.08924,-3.08025466070477E-6));
#1019=CARTESIAN_POINT('',(0.0412193557739838,0.08924,0.0057469197453393));
#1020=CARTESIAN_POINT('',(0.0433693557739838,0.08924,0.0057469197453393));
#1021=CARTESIAN_POINT('',(0.0382222794355758,0.0903297218846555,-3.08025466070477E-6));
#1022=CARTESIAN_POINT('',(0.0382222794355758,0.0903297218846555,0.0142469197453393));
#1023=CARTESIAN_POINT('',(0.0326594608600287,0.0929907209995866,0.0142469197453393));
#1024=CARTESIAN_POINT('',(0.0326594608600287,0.0929907209995866,-3.08025466070477E-6));
#1025=CARTESIAN_POINT('',(0.0326594608600287,0.0929907209995866,0.0057469197453393));
#1026=CARTESIAN_POINT('',(0.0382222794355758,0.0903297218846555,0.0057469197453393));
#1027=CARTESIAN_POINT('',(0.0382222794355758,0.0903297218846555,-3.08025466070477E-6));
#1028=CARTESIAN_POINT('',(0.0322712030971677,0.0919454437693111,-3.08025466070477E-6));
#1029=CARTESIAN_POINT('',(0.0322712030971677,0.0919454437693111,-3.08025466070477E-6));
#1030=CARTESIAN_POINT('',(0.0322712030971677,0.0919454437693111,0.0199969197453393));
#1031=CARTESIAN_POINT('',(0.0382222794355758,0.0903297218846555,0.0199969197453393));
#1032=CARTESIAN_POINT('',(0.024783,0.005,0.00999691974533929));
#1033=CARTESIAN_POINT('',(0.00480758751009941,0.005,0.0039969197453393));
#1034=CARTESIAN_POINT('',(0.00480758751009941,0.005,0.0018469197453393));
#1035=CARTESIAN_POINT('',(0.00480758751009941,0.005,0.0159969197453393));
#1036=CARTESIAN_POINT('',(0.00480758751009941,0.005,0.0138469197453393));
#1037=CARTESIAN_POINT('',(0.00902758751009941,0.005,-3.08025466070477E-6));
#1038=CARTESIAN_POINT('',(0.00902758751009941,0.005,-3.08025466070477E-6));
#1039=CARTESIAN_POINT('',(0.00902758751009941,0.005,0.0199969197453393));
#1040=CARTESIAN_POINT('',(0.0247834716420417,0.005,-3.08025466070824E-6));
#1041=CARTESIAN_POINT('',(0.00202758751009941,0.005,-3.08025466070824E-6));
#1042=CARTESIAN_POINT('',(0.0010137937550497,0.005,0.000996919745339294));
#1043=CARTESIAN_POINT('',(-3.46944695195361E-18,0.005,0.00199691974533929));
#1044=CARTESIAN_POINT('',(0.,0.005,0.0099969197453393));
#1045=CARTESIAN_POINT('',(0.,0.005,0.0179969197453393));
#1046=CARTESIAN_POINT('',(0.0010137937550497,0.005,0.0189969197453393));
#1047=CARTESIAN_POINT('',(0.00202758751009941,0.005,0.0199969197453393));
#1048=CARTESIAN_POINT('',(0.0247834716420417,0.005,0.0199969197453393));
#1049=CARTESIAN_POINT('',(0.0247834716420417,0.005,0.0199969197453393));
#1050=CARTESIAN_POINT('',(0.0247834716420417,0.,0.0199969197453393));
#1051=CARTESIAN_POINT('',(0.0325393557739839,0.,0.0199969197453393));
#1052=CARTESIAN_POINT('',(0.00202758751009941,0.,0.0199969197453393));
#1053=CARTESIAN_POINT('',(0.0311614137080128,-0.00137794206597112,0.0199969197453393));
#1054=CARTESIAN_POINT('',(0.0231493953036335,0.0583477218846555,0.0199969197453393));
#1055=CARTESIAN_POINT('',(0.0140275875100994,0.02475,0.0199969197453393));
#1056=CARTESIAN_POINT('',(0.0140275875100994,0.017375,0.0199969197453393));
#1057=CARTESIAN_POINT('',(0.0140275875100994,0.01,0.0199969197453393));
#1058=CARTESIAN_POINT('',(0.0115275875100994,0.0075,0.0199969197453393));
#1059=CARTESIAN_POINT('',(0.00202758751009941,0.005,0.0199969197453393));
#1060=CARTESIAN_POINT('',(0.0412193557739838,0.08924,0.0199969197453393));
#1061=CARTESIAN_POINT('',(0.0433693557739838,0.08924,0.0199969197453393));
#1062=CARTESIAN_POINT('',(0.0325393557739839,0.04,0.0199969197453393));
#1063=CARTESIAN_POINT('',(0.0346893557739839,0.04,0.0199969197453393));
#1064=CARTESIAN_POINT('',(0.0010137937550497,0.005,0.0189969197453393));
#1065=CARTESIAN_POINT('',(0.0010137937550497,0.,0.0189969197453393));
#1066=CARTESIAN_POINT('',(0.,0.,0.0179969197453393));
#1067=CARTESIAN_POINT('',(0.,0.005,0.0179969197453393));
#1068=CARTESIAN_POINT('',(0.,0.005,0.0099969197453393));
#1069=CARTESIAN_POINT('',(0.,0.,0.0099969197453393));
#1070=CARTESIAN_POINT('',(-3.46944695195361E-18,0.,0.00199691974533929));
#1071=CARTESIAN_POINT('',(-3.46944695195361E-18,0.005,0.00199691974533929));
#1072=CARTESIAN_POINT('',(0.0010137937550497,0.005,0.000996919745339294));
#1073=CARTESIAN_POINT('',(0.0010137937550497,0.,0.000996919745339294));
#1074=CARTESIAN_POINT('',(0.00202758751009941,0.,-3.08025466070824E-6));
#1075=CARTESIAN_POINT('',(0.00202758751009941,0.005,-3.08025466070824E-6));
#1076=CARTESIAN_POINT('',(0.0247834716420417,0.005,-3.08025466070824E-6));
#1077=CARTESIAN_POINT('',(0.0311614137080128,-0.00137794206597112,-3.08025466070824E-6));
#1078=CARTESIAN_POINT('',(0.0325393557739839,0.,-3.08025466070824E-6));
#1079=CARTESIAN_POINT('',(0.0247834716420417,0.,-3.08025466070824E-6));
#1080=CARTESIAN_POINT('',(0.0115275875100994,0.0075,-3.08025466070477E-6));
#1081=CARTESIAN_POINT('',(0.0140275875100994,0.01,-3.08025466070477E-6));
#1082=CARTESIAN_POINT('',(0.0140275875100994,0.017375,-3.08025466070477E-6));
#1083=CARTESIAN_POINT('',(0.0140275875100994,0.02475,-3.08025466070477E-6));
#1084=CARTESIAN_POINT('',(0.0231493953036335,0.0583477218846555,-3.08025466070477E-6));
#1085=CARTESIAN_POINT('',(0.00480758751009941,0.005,0.0159969197453393));
#1086=CARTESIAN_POINT('',(0.00480758751009941,0.,0.0159969197453393));
#1087=CARTESIAN_POINT('',(0.00480758751009941,0.,0.0138469197453393));
#1088=CARTESIAN_POINT('',(0.00480758751009941,0.005,0.0039969197453393));
#1089=CARTESIAN_POINT('',(0.00480758751009941,0.,0.0039969197453393));
#1090=CARTESIAN_POINT('',(0.00480758751009941,0.,0.0018469197453393));
#1091=CARTESIAN_POINT('',(0.0247833557739839,0.005,0.00399691974533929));
#1092=CARTESIAN_POINT('',(0.0247833557739839,0.005,0.00399691974533929));
#1093=CARTESIAN_POINT('',(0.0247833557739839,0.005,0.00184691974533929));
#1094=CARTESIAN_POINT('',(0.0247833557739839,0.,0.00399691974533929));
#1095=CARTESIAN_POINT('',(0.0247833557739839,0.,0.00184691974533929));
#1096=CARTESIAN_POINT('',(0.0247833557739839,0.005,0.0159969197453393));
#1097=CARTESIAN_POINT('',(0.0247833557739839,0.005,0.0159969197453393));
#1098=CARTESIAN_POINT('',(0.0247833557739839,0.005,0.0138469197453393));
#1099=CARTESIAN_POINT('',(0.0247833557739839,0.,0.0159969197453393));
#1100=CARTESIAN_POINT('',(0.0247833557739839,0.,0.0138469197453393));
#1101=CARTESIAN_POINT('',(0.024783,0.,0.00999691974533929));
#1102=CARTESIAN_POINT('',(0.0325393557739839,0.,0.0199969197453393));
#1103=CARTESIAN_POINT('',(0.0115275875100994,0.0075,-3.08025466070477E-6));
#1104=CARTESIAN_POINT('',(0.0140275875100994,0.01,-3.08025466070477E-6));
#1105=CARTESIAN_POINT('',(0.0412193557739838,0.08924,-3.08025466070477E-6));
#1106=CARTESIAN_POINT('',(0.0412193557739838,0.08924,0.0142469197453393));
#1107=CARTESIAN_POINT('',(0.0433693557739838,0.08924,0.0142469197453393));
#1108=CARTESIAN_POINT('',(0.0325393557739839,0.04,-3.08025466070477E-6));
#1109=CARTESIAN_POINT('',(0.0325393557739839,0.04,0.0142469197453393));
#1110=CARTESIAN_POINT('',(0.0346893557739839,0.04,0.0142469197453393));
#1111=CARTESIAN_POINT('',(0.0140275875100994,0.017375,-3.08025466070477E-6));
#1112=CARTESIAN_POINT('',(0.0140275875100994,0.02475,-3.08025466070477E-6));
#1113=CARTESIAN_POINT('',(0.0231493953036335,0.0583477218846555,-3.08025466070477E-6));
#1114=CARTESIAN_POINT('',(0.0247834716420417,0.005,-3.08025466070477E-6));
#1115=CARTESIAN_POINT('',(0.0247834716420417,0.005,-3.08025466070477E-6));
#1116=CARTESIAN_POINT('',(0.0322712030971677,0.0919454437693111,0.0057469197453393));
#1117=CARTESIAN_POINT('',(0.0322712030971677,0.0919454437693111,0.0057469197453393));
#1118=CARTESIAN_POINT('',(0.0338793632682674,0.0914592219677734,0.0057469197453393));
#1119=CARTESIAN_POINT('',(0.0334661335955029,0.0931264314408599,0.0057469197453393));
#1120=CARTESIAN_POINT('',(0.0334661335955029,0.0931264314408599,0.0057469197453393));
#1121=CARTESIAN_POINT('',(0.0334661335955029,0.0931264314408599,0.0142469197453393));
#1122=CARTESIAN_POINT('',(0.0322712030971677,0.0919454437693111,0.0142469197453393));
#1123=CARTESIAN_POINT('',(0.0338793632682674,0.0914592219677734,0.0142469197453393));
#1124=CARTESIAN_POINT('',(0.0338793632682674,0.0914592219677734,0.0057469197453393));
#1125=CARTESIAN_POINT('',(0.0412193557739838,0.08924,0.0057469197453393));
#1126=CARTESIAN_POINT('',(0.0412193557739838,0.08924,0.0142469197453393));
#1127=CARTESIAN_POINT('',(0.0342510161114514,0.0860395815158327,0.0142469197453393));
#1128=CARTESIAN_POINT('',(0.0342510161114514,0.0860395815158327,0.0057469197453393));
#1129=CARTESIAN_POINT('',(0.0342510161114514,0.0860395815158327,0.0057469197453393));
#1130=CARTESIAN_POINT('',(0.0412193557739838,0.08924,0.0057469197453393));
#1131=CARTESIAN_POINT('',(0.037655640232148,0.078626620550374,0.0057469197453393));
#1132=CARTESIAN_POINT('',(0.037655640232148,0.078626620550374,0.0142469197453393));
#1133=CARTESIAN_POINT('',(0.037655640232148,0.078626620550374,0.0057469197453393));
#1134=CARTESIAN_POINT('',(0.0254575437633711,0.0484540721213294,0.0057469197453393));
#1135=CARTESIAN_POINT('',(0.0331105115373035,0.092774958893252,0.0057469197453393));
#1136=CARTESIAN_POINT('',(0.0254575437633711,0.0484540721213294,0.0142469197453393));
#1137=CARTESIAN_POINT('',(0.0331105115373035,0.092774958893252,0.0142469197453393));
#1138=CARTESIAN_POINT('',(0.0331105115373035,0.092774958893252,-3.08025466070477E-6));
#1139=CARTESIAN_POINT('',(0.0249529622373038,0.033484891934387,0.0057469197453393));
#1140=CARTESIAN_POINT('',(0.0249529622373038,0.033484891934387,0.0142469197453393));
#1141=CARTESIAN_POINT('',(0.0295259471174049,0.0355067250843687,0.0142469197453393));
#1142=CARTESIAN_POINT('',(0.0287461590056437,0.0367424459671935,0.0142469197453393));
#1143=CARTESIAN_POINT('',(0.0295259471174049,0.0355067250843687,0.0057469197453393));
#1144=CARTESIAN_POINT('',(0.0295259471174049,0.0355067250843687,0.0057469197453393));
#1145=CARTESIAN_POINT('',(0.0249529622373038,0.033484891934387,0.0057469197453393));
#1146=CARTESIAN_POINT('',(0.0287461590056437,0.0367424459671935,0.0057469197453393));
#1147=CARTESIAN_POINT('',(0.0287461590056437,0.0367424459671935,0.0057469197453393));
#1148=CARTESIAN_POINT('',(0.0325326514456944,0.0287061572767197,0.0057469197453393));
#1149=CARTESIAN_POINT('',(0.0325326514456944,0.0287061572767197,0.0142469197453393));
#1150=CARTESIAN_POINT('',(0.0325326514456944,0.0287061572767197,0.0057469197453393));
#1151=CARTESIAN_POINT('',(0.034819807076593,0.0518872139505534,0.0057469197453393));
#1152=CARTESIAN_POINT('',(0.034819807076593,0.0518872139505534,0.0142469197453393));
#1153=CARTESIAN_POINT('',(0.0308701017091818,0.0454383015421648,0.0142469197453393));
#1154=CARTESIAN_POINT('',(0.0308701017091818,0.0454383015421648,0.0057469197453393));
#1155=CARTESIAN_POINT('',(0.0308701017091818,0.0454383015421648,0.0057469197453393));
#1156=CARTESIAN_POINT('',(0.034819807076593,0.0518872139505534,0.0057469197453393));
#1157=CARTESIAN_POINT('',(0.0266062549888189,0.0480497400624539,0.0057469197453393));
#1158=CARTESIAN_POINT('',(0.0266062549888189,0.0480497400624539,0.0142469197453393));
#1159=CARTESIAN_POINT('',(0.0295728053814014,0.044024870031227,0.0142469197453393));
#1160=CARTESIAN_POINT('',(0.0295728053814014,0.044024870031227,0.0057469197453393));
#1161=CARTESIAN_POINT('',(0.0295728053814014,0.044024870031227,0.0057469197453393));
#1162=CARTESIAN_POINT('',(0.0266062549888189,0.0480497400624539,0.0057469197453393));
#1163=CARTESIAN_POINT('',(0.0325393557739839,0.04,0.0057469197453393));
#1164=CARTESIAN_POINT('',(0.0325393557739839,0.04,0.0142469197453393));
#1165=CARTESIAN_POINT('',(0.0325393557739839,0.04,0.0057469197453393));
#1166=CARTESIAN_POINT('',(0.0247834716420417,0.0482481168023772,0.0057469197453393));
#1167=CARTESIAN_POINT('',(0.0247834716420417,0.0482481168023772,0.0142469197453393));
#1168=CARTESIAN_POINT('',(0.0355393557739839,0.003,-3.08025466070477E-6));
#1169=MECHANICAL_DESIGN_GEOMETRIC_PRESENTATION_REPRESENTATION('',(#694),
#1170);
#1170=(
GEOMETRIC_REPRESENTATION_CONTEXT(3)
GLOBAL_UNCERTAINTY_ASSIGNED_CONTEXT((#1171))
GLOBAL_UNIT_ASSIGNED_CONTEXT((#1174,#1173,#1172))
REPRESENTATION_CONTEXT('Part 1','TOP_LEVEL_ASSEMBLY_PART')
);
#1171=UNCERTAINTY_MEASURE_WITH_UNIT(LENGTH_MEASURE(1.E-8),#1174,
'DISTANCE_ACCURACY_VALUE','Maximum Tolerance applied to model');
#1172=(
NAMED_UNIT(*)
SI_UNIT($,.STERADIAN.)
SOLID_ANGLE_UNIT()
);
#1173=(
NAMED_UNIT(*)
PLANE_ANGLE_UNIT()
SI_UNIT($,.RADIAN.)
);
#1174=(
LENGTH_UNIT()
NAMED_UNIT(*)
SI_UNIT($,.METRE.)
);
#1175=PRODUCT_DEFINITION_SHAPE('','',#1176);
#1176=PRODUCT_DEFINITION('','',#1178,#1177);
#1177=PRODUCT_DEFINITION_CONTEXT('',#1184,'design');
#1178=PRODUCT_DEFINITION_FORMATION_WITH_SPECIFIED_SOURCE('','',#1180,
 .NOT_KNOWN.);
#1179=PRODUCT_RELATED_PRODUCT_CATEGORY('','',(#1180));
#1180=PRODUCT('Part 1','Part 1','Part 1',(#1182));
#1181=PRODUCT_CATEGORY('','');
#1182=PRODUCT_CONTEXT('',#1184,'mechanical');
#1183=APPLICATION_PROTOCOL_DEFINITION('international standard',
'ap242_managed_model_based_3d_engineering',2020,#1184);
#1184=APPLICATION_CONTEXT('managed model based 3d engineering');
ENDSEC;
END-ISO-10303-21;
