ISO-10303-21;
HEADER;
/* Generated by software containing ST-Developer
 * from STEP Tools, Inc. (www.steptools.com) 
 */
/* OPTION: using custom renumber hook */

FILE_DESCRIPTION(
/* description */ ('STEP AP242 Edition 2',
'CAx-IF Rec.Pracs.---Representation and Presentation of Product Manufa
cturing Information (PMI)---4.0---2014-10-13',
'CAx-IF Rec.Pracs.---3D Tessellated Geometry---0.4---2014-09-14','2;1',
'CAx-IF Rec.Pracs.---User Defined Attributes---1.5---2016-08-15'),
/* implementation_level */ '2;1');

FILE_NAME(
/* name */ 'Lever',
/* time_stamp */ '2026-09-07T18:43:21Z',
/* author */ (''),
/* organization */ (''),
/* preprocessor_version */ 'ST-DEVELOPER v20',
/* originating_system */ 'ONSHAPE BY PTC INC, 1.220',
/* authorisation */ '  ');

FILE_SCHEMA (('AP242_MANAGED_MODEL_BASED_3D_ENGINEERING_MIM_LF { 1 0 10303 442 3 1 4 }'));
ENDSEC;

DATA;
#10=SHAPE_REPRESENTATION_RELATIONSHIP('','',#227,#11);
#11=ADVANCED_BREP_SHAPE_REPRESENTATION('',(#225),#389);
#12=PLANE('',#232);
#13=PLANE('',#242);
#14=PLANE('',#255);
#15=PLANE('',#256);
#16=LINE('',#332,#28);
#17=LINE('',#336,#29);
#18=LINE('',#338,#30);
#19=LINE('',#340,#31);
#20=LINE('',#342,#32);
#21=LINE('',#346,#33);
#22=LINE('',#352,#34);
#23=LINE('',#358,#35);
#24=LINE('',#362,#36);
#25=LINE('',#364,#37);
#26=LINE('',#366,#38);
#27=LINE('',#370,#39);
#28=VECTOR('',#263,1.);
#29=VECTOR('',#266,1.);
#30=VECTOR('',#269,1.);
#31=VECTOR('',#270,1.);
#32=VECTOR('',#271,1.);
#33=VECTOR('',#276,1.);
#34=VECTOR('',#283,1.);
#35=VECTOR('',#290,1.);
#36=VECTOR('',#295,1.);
#37=VECTOR('',#296,1.);
#38=VECTOR('',#297,1.);
#39=VECTOR('',#302,1.);
#40=ORIENTED_EDGE('',*,*,#96,.F.);
#41=ORIENTED_EDGE('',*,*,#97,.F.);
#42=ORIENTED_EDGE('',*,*,#98,.T.);
#43=ORIENTED_EDGE('',*,*,#99,.T.);
#44=ORIENTED_EDGE('',*,*,#100,.F.);
#45=ORIENTED_EDGE('',*,*,#101,.F.);
#46=ORIENTED_EDGE('',*,*,#102,.T.);
#47=ORIENTED_EDGE('',*,*,#97,.T.);
#48=ORIENTED_EDGE('',*,*,#103,.F.);
#49=ORIENTED_EDGE('',*,*,#104,.F.);
#50=ORIENTED_EDGE('',*,*,#105,.T.);
#51=ORIENTED_EDGE('',*,*,#101,.T.);
#52=ORIENTED_EDGE('',*,*,#106,.T.);
#53=ORIENTED_EDGE('',*,*,#107,.F.);
#54=ORIENTED_EDGE('',*,*,#108,.F.);
#55=ORIENTED_EDGE('',*,*,#104,.T.);
#56=ORIENTED_EDGE('',*,*,#109,.F.);
#57=ORIENTED_EDGE('',*,*,#110,.F.);
#58=ORIENTED_EDGE('',*,*,#111,.T.);
#59=ORIENTED_EDGE('',*,*,#107,.T.);
#60=ORIENTED_EDGE('',*,*,#112,.F.);
#61=ORIENTED_EDGE('',*,*,#113,.F.);
#62=ORIENTED_EDGE('',*,*,#114,.T.);
#63=ORIENTED_EDGE('',*,*,#110,.T.);
#64=ORIENTED_EDGE('',*,*,#115,.F.);
#65=ORIENTED_EDGE('',*,*,#116,.F.);
#66=ORIENTED_EDGE('',*,*,#117,.T.);
#67=ORIENTED_EDGE('',*,*,#113,.T.);
#68=ORIENTED_EDGE('',*,*,#118,.T.);
#69=ORIENTED_EDGE('',*,*,#99,.F.);
#70=ORIENTED_EDGE('',*,*,#119,.F.);
#71=ORIENTED_EDGE('',*,*,#116,.T.);
#72=ORIENTED_EDGE('',*,*,#120,.T.);
#73=ORIENTED_EDGE('',*,*,#121,.F.);
#74=ORIENTED_EDGE('',*,*,#122,.T.);
#75=ORIENTED_EDGE('',*,*,#123,.F.);
#76=ORIENTED_EDGE('',*,*,#120,.F.);
#77=ORIENTED_EDGE('',*,*,#98,.F.);
#78=ORIENTED_EDGE('',*,*,#102,.F.);
#79=ORIENTED_EDGE('',*,*,#105,.F.);
#80=ORIENTED_EDGE('',*,*,#108,.T.);
#81=ORIENTED_EDGE('',*,*,#111,.F.);
#82=ORIENTED_EDGE('',*,*,#114,.F.);
#83=ORIENTED_EDGE('',*,*,#117,.F.);
#84=ORIENTED_EDGE('',*,*,#119,.T.);
#85=ORIENTED_EDGE('',*,*,#122,.F.);
#86=ORIENTED_EDGE('',*,*,#121,.T.);
#87=ORIENTED_EDGE('',*,*,#96,.T.);
#88=ORIENTED_EDGE('',*,*,#118,.F.);
#89=ORIENTED_EDGE('',*,*,#115,.T.);
#90=ORIENTED_EDGE('',*,*,#112,.T.);
#91=ORIENTED_EDGE('',*,*,#109,.T.);
#92=ORIENTED_EDGE('',*,*,#106,.F.);
#93=ORIENTED_EDGE('',*,*,#103,.T.);
#94=ORIENTED_EDGE('',*,*,#100,.T.);
#95=ORIENTED_EDGE('',*,*,#123,.T.);
#96=EDGE_CURVE('',#124,#125,#144,.T.);
#97=EDGE_CURVE('',#126,#124,#16,.T.);
#98=EDGE_CURVE('',#126,#127,#145,.T.);
#99=EDGE_CURVE('',#127,#125,#17,.T.);
#100=EDGE_CURVE('',#128,#124,#18,.T.);
#101=EDGE_CURVE('',#129,#128,#19,.T.);
#102=EDGE_CURVE('',#129,#126,#20,.T.);
#103=EDGE_CURVE('',#130,#128,#146,.T.);
#104=EDGE_CURVE('',#131,#130,#21,.T.);
#105=EDGE_CURVE('',#131,#129,#147,.T.);
#106=EDGE_CURVE('',#130,#132,#148,.T.);
#107=EDGE_CURVE('',#133,#132,#22,.T.);
#108=EDGE_CURVE('',#131,#133,#149,.T.);
#109=EDGE_CURVE('',#134,#132,#150,.T.);
#110=EDGE_CURVE('',#135,#134,#23,.T.);
#111=EDGE_CURVE('',#135,#133,#151,.T.);
#112=EDGE_CURVE('',#136,#134,#24,.T.);
#113=EDGE_CURVE('',#137,#136,#25,.T.);
#114=EDGE_CURVE('',#137,#135,#26,.T.);
#115=EDGE_CURVE('',#138,#136,#152,.T.);
#116=EDGE_CURVE('',#139,#138,#27,.T.);
#117=EDGE_CURVE('',#139,#137,#153,.T.);
#118=EDGE_CURVE('',#138,#125,#154,.T.);
#119=EDGE_CURVE('',#139,#127,#155,.T.);
#120=EDGE_CURVE('',#140,#140,#156,.T.);
#121=EDGE_CURVE('',#141,#141,#157,.T.);
#122=EDGE_CURVE('',#142,#142,#158,.T.);
#123=EDGE_CURVE('',#143,#143,#159,.T.);
#124=VERTEX_POINT('',#330);
#125=VERTEX_POINT('',#331);
#126=VERTEX_POINT('',#333);
#127=VERTEX_POINT('',#335);
#128=VERTEX_POINT('',#339);
#129=VERTEX_POINT('',#341);
#130=VERTEX_POINT('',#345);
#131=VERTEX_POINT('',#347);
#132=VERTEX_POINT('',#351);
#133=VERTEX_POINT('',#353);
#134=VERTEX_POINT('',#357);
#135=VERTEX_POINT('',#359);
#136=VERTEX_POINT('',#363);
#137=VERTEX_POINT('',#365);
#138=VERTEX_POINT('',#369);
#139=VERTEX_POINT('',#371);
#140=VERTEX_POINT('',#378);
#141=VERTEX_POINT('',#380);
#142=VERTEX_POINT('',#383);
#143=VERTEX_POINT('',#385);
#144=CIRCLE('',#230,0.00499999999999986);
#145=CIRCLE('',#231,0.00499999999999986);
#146=CIRCLE('',#234,0.00499999999999987);
#147=CIRCLE('',#235,0.00499999999999987);
#148=CIRCLE('',#237,0.0045);
#149=CIRCLE('',#238,0.0045);
#150=CIRCLE('',#240,0.00499999999999988);
#151=CIRCLE('',#241,0.00499999999999988);
#152=CIRCLE('',#244,0.00499999999999986);
#153=CIRCLE('',#245,0.00499999999999986);
#154=CIRCLE('',#247,0.0045);
#155=CIRCLE('',#248,0.0045);
#156=CIRCLE('',#250,0.00215);
#157=CIRCLE('',#251,0.00215);
#158=CIRCLE('',#253,0.00215);
#159=CIRCLE('',#254,0.00215);
#160=EDGE_LOOP('',(#40,#41,#42,#43));
#161=EDGE_LOOP('',(#44,#45,#46,#47));
#162=EDGE_LOOP('',(#48,#49,#50,#51));
#163=EDGE_LOOP('',(#52,#53,#54,#55));
#164=EDGE_LOOP('',(#56,#57,#58,#59));
#165=EDGE_LOOP('',(#60,#61,#62,#63));
#166=EDGE_LOOP('',(#64,#65,#66,#67));
#167=EDGE_LOOP('',(#68,#69,#70,#71));
#168=EDGE_LOOP('',(#72));
#169=EDGE_LOOP('',(#73));
#170=EDGE_LOOP('',(#74));
#171=EDGE_LOOP('',(#75));
#172=EDGE_LOOP('',(#76));
#173=EDGE_LOOP('',(#77,#78,#79,#80,#81,#82,#83,#84));
#174=EDGE_LOOP('',(#85));
#175=EDGE_LOOP('',(#86));
#176=EDGE_LOOP('',(#87,#88,#89,#90,#91,#92,#93,#94));
#177=EDGE_LOOP('',(#95));
#178=FACE_BOUND('',#160,.T.);
#179=FACE_BOUND('',#161,.T.);
#180=FACE_BOUND('',#162,.T.);
#181=FACE_BOUND('',#163,.T.);
#182=FACE_BOUND('',#164,.T.);
#183=FACE_BOUND('',#165,.T.);
#184=FACE_BOUND('',#166,.T.);
#185=FACE_BOUND('',#167,.T.);
#186=FACE_BOUND('',#168,.T.);
#187=FACE_BOUND('',#169,.T.);
#188=FACE_BOUND('',#170,.T.);
#189=FACE_BOUND('',#171,.T.);
#190=FACE_BOUND('',#172,.T.);
#191=FACE_BOUND('',#173,.T.);
#192=FACE_BOUND('',#174,.T.);
#193=FACE_BOUND('',#175,.T.);
#194=FACE_BOUND('',#176,.T.);
#195=FACE_BOUND('',#177,.T.);
#196=CYLINDRICAL_SURFACE('',#229,0.00499999999999986);
#197=CYLINDRICAL_SURFACE('',#233,0.00499999999999987);
#198=CYLINDRICAL_SURFACE('',#236,0.0045);
#199=CYLINDRICAL_SURFACE('',#239,0.00499999999999988);
#200=CYLINDRICAL_SURFACE('',#243,0.00499999999999986);
#201=CYLINDRICAL_SURFACE('',#246,0.0045);
#202=CYLINDRICAL_SURFACE('',#249,0.00215);
#203=CYLINDRICAL_SURFACE('',#252,0.00215);
#204=ADVANCED_FACE('',(#178),#196,.F.);
#205=ADVANCED_FACE('',(#179),#12,.T.);
#206=ADVANCED_FACE('',(#180),#197,.F.);
#207=ADVANCED_FACE('',(#181),#198,.T.);
#208=ADVANCED_FACE('',(#182),#199,.F.);
#209=ADVANCED_FACE('',(#183),#13,.T.);
#210=ADVANCED_FACE('',(#184),#200,.F.);
#211=ADVANCED_FACE('',(#185),#201,.T.);
#212=ADVANCED_FACE('',(#186,#187),#202,.F.);
#213=ADVANCED_FACE('',(#188,#189),#203,.F.);
#214=ADVANCED_FACE('',(#190,#191,#192),#14,.T.);
#215=ADVANCED_FACE('',(#193,#194,#195),#15,.F.);
#216=CLOSED_SHELL('',(#204,#205,#206,#207,#208,#209,#210,#211,#212,#213,
#214,#215));
#217=STYLED_ITEM('',(#218),#225);
#218=PRESENTATION_STYLE_ASSIGNMENT((#219));
#219=SURFACE_STYLE_USAGE(.BOTH.,#220);
#220=SURFACE_SIDE_STYLE('',(#221));
#221=SURFACE_STYLE_FILL_AREA(#222);
#222=FILL_AREA_STYLE('',(#223));
#223=FILL_AREA_STYLE_COLOUR('',#224);
#224=COLOUR_RGB('',0.917647058823529,0.917647058823529,0.917647058823529);
#225=MANIFOLD_SOLID_BREP('Part 1',#216);
#226=SHAPE_DEFINITION_REPRESENTATION(#394,#227);
#227=SHAPE_REPRESENTATION('Part 1',(#228),#389);
#228=AXIS2_PLACEMENT_3D('',#327,#257,#258);
#229=AXIS2_PLACEMENT_3D('',#328,#259,#260);
#230=AXIS2_PLACEMENT_3D('',#329,#261,#262);
#231=AXIS2_PLACEMENT_3D('',#334,#264,#265);
#232=AXIS2_PLACEMENT_3D('',#337,#267,#268);
#233=AXIS2_PLACEMENT_3D('',#343,#272,#273);
#234=AXIS2_PLACEMENT_3D('',#344,#274,#275);
#235=AXIS2_PLACEMENT_3D('',#348,#277,#278);
#236=AXIS2_PLACEMENT_3D('',#349,#279,#280);
#237=AXIS2_PLACEMENT_3D('',#350,#281,#282);
#238=AXIS2_PLACEMENT_3D('',#354,#284,#285);
#239=AXIS2_PLACEMENT_3D('',#355,#286,#287);
#240=AXIS2_PLACEMENT_3D('',#356,#288,#289);
#241=AXIS2_PLACEMENT_3D('',#360,#291,#292);
#242=AXIS2_PLACEMENT_3D('',#361,#293,#294);
#243=AXIS2_PLACEMENT_3D('',#367,#298,#299);
#244=AXIS2_PLACEMENT_3D('',#368,#300,#301);
#245=AXIS2_PLACEMENT_3D('',#372,#303,#304);
#246=AXIS2_PLACEMENT_3D('',#373,#305,#306);
#247=AXIS2_PLACEMENT_3D('',#374,#307,#308);
#248=AXIS2_PLACEMENT_3D('',#375,#309,#310);
#249=AXIS2_PLACEMENT_3D('',#376,#311,#312);
#250=AXIS2_PLACEMENT_3D('',#377,#313,#314);
#251=AXIS2_PLACEMENT_3D('',#379,#315,#316);
#252=AXIS2_PLACEMENT_3D('',#381,#317,#318);
#253=AXIS2_PLACEMENT_3D('',#382,#319,#320);
#254=AXIS2_PLACEMENT_3D('',#384,#321,#322);
#255=AXIS2_PLACEMENT_3D('',#386,#323,#324);
#256=AXIS2_PLACEMENT_3D('',#387,#325,#326);
#257=DIRECTION('',(0.,0.,1.));
#258=DIRECTION('',(1.,0.,0.));
#259=DIRECTION('',(0.,0.,-1.));
#260=DIRECTION('',(-1.,0.,0.));
#261=DIRECTION('',(0.,0.,1.));
#262=DIRECTION('',(1.,0.,0.));
#263=DIRECTION('',(0.,0.,-1.));
#264=DIRECTION('',(0.,0.,1.));
#265=DIRECTION('',(1.,0.,0.));
#266=DIRECTION('',(0.,0.,-1.));
#267=DIRECTION('',(-1.,0.,0.));
#268=DIRECTION('',(0.,0.,1.));
#269=DIRECTION('',(0.,1.,0.));
#270=DIRECTION('',(0.,0.,-1.));
#271=DIRECTION('',(0.,1.,0.));
#272=DIRECTION('',(0.,0.,-1.));
#273=DIRECTION('',(-1.,0.,0.));
#274=DIRECTION('',(0.,0.,1.));
#275=DIRECTION('',(1.,0.,0.));
#276=DIRECTION('',(0.,0.,-1.));
#277=DIRECTION('',(0.,0.,1.));
#278=DIRECTION('',(1.,0.,0.));
#279=DIRECTION('',(0.,0.,-1.));
#280=DIRECTION('',(-1.,0.,0.));
#281=DIRECTION('',(0.,0.,1.));
#282=DIRECTION('',(1.,0.,0.));
#283=DIRECTION('',(0.,0.,-1.));
#284=DIRECTION('',(0.,0.,1.));
#285=DIRECTION('',(1.,0.,0.));
#286=DIRECTION('',(0.,0.,-1.));
#287=DIRECTION('',(-1.,0.,0.));
#288=DIRECTION('',(0.,0.,1.));
#289=DIRECTION('',(1.,0.,0.));
#290=DIRECTION('',(0.,0.,-1.));
#291=DIRECTION('',(0.,0.,1.));
#292=DIRECTION('',(1.,0.,0.));
#293=DIRECTION('',(1.,1.28241877114067E-16,0.));
#294=DIRECTION('',(-1.28241877114067E-16,1.,0.));
#295=DIRECTION('',(1.28241877114067E-16,-1.,0.));
#296=DIRECTION('',(0.,0.,-1.));
#297=DIRECTION('',(1.28241877114067E-16,-1.,0.));
#298=DIRECTION('',(0.,0.,-1.));
#299=DIRECTION('',(-1.,0.,0.));
#300=DIRECTION('',(0.,0.,1.));
#301=DIRECTION('',(1.,0.,0.));
#302=DIRECTION('',(0.,0.,-1.));
#303=DIRECTION('',(0.,0.,1.));
#304=DIRECTION('',(1.,0.,0.));
#305=DIRECTION('',(0.,0.,-1.));
#306=DIRECTION('',(-1.,0.,0.));
#307=DIRECTION('',(0.,0.,1.));
#308=DIRECTION('',(1.,0.,0.));
#309=DIRECTION('',(0.,0.,1.));
#310=DIRECTION('',(1.,0.,0.));
#311=DIRECTION('',(0.,0.,-1.));
#312=DIRECTION('',(-1.,0.,0.));
#313=DIRECTION('',(0.,0.,1.));
#314=DIRECTION('',(1.,0.,0.));
#315=DIRECTION('',(0.,0.,1.));
#316=DIRECTION('',(1.,0.,0.));
#317=DIRECTION('',(0.,0.,-1.));
#318=DIRECTION('',(-1.,0.,0.));
#319=DIRECTION('',(0.,0.,1.));
#320=DIRECTION('',(1.,0.,0.));
#321=DIRECTION('',(0.,0.,1.));
#322=DIRECTION('',(1.,0.,0.));
#323=DIRECTION('',(0.,0.,1.));
#324=DIRECTION('',(1.,0.,0.));
#325=DIRECTION('',(0.,0.,1.));
#326=DIRECTION('',(1.,0.,0.));
#327=CARTESIAN_POINT('',(0.,0.,0.));
#328=CARTESIAN_POINT('',(-0.00714999999999987,0.0637448021614022,0.008));
#329=CARTESIAN_POINT('',(-0.00714999999999987,0.0637448021614022,0.));
#330=CARTESIAN_POINT('',(-0.00215,0.0637448021614022,0.));
#331=CARTESIAN_POINT('',(-0.00338684210526316,0.0670370115501378,0.));
#332=CARTESIAN_POINT('',(-0.00215,0.0637448021614022,0.008));
#333=CARTESIAN_POINT('',(-0.00215,0.0637448021614022,0.008));
#334=CARTESIAN_POINT('',(-0.00714999999999987,0.0637448021614022,0.008));
#335=CARTESIAN_POINT('',(-0.00338684210526316,0.0670370115501378,0.008));
#336=CARTESIAN_POINT('',(-0.00338684210526316,0.0670370115501378,0.008));
#337=CARTESIAN_POINT('',(-0.00215,0.035,0.008));
#338=CARTESIAN_POINT('',(-0.00215,0.035,0.));
#339=CARTESIAN_POINT('',(-0.00215,0.00625519783859786,0.));
#340=CARTESIAN_POINT('',(-0.00215,0.00625519783859786,0.008));
#341=CARTESIAN_POINT('',(-0.00215,0.00625519783859786,0.008));
#342=CARTESIAN_POINT('',(-0.00215,0.035,0.008));
#343=CARTESIAN_POINT('',(-0.00714999999999987,0.00625519783859786,0.008));
#344=CARTESIAN_POINT('',(-0.00714999999999987,0.00625519783859786,0.));
#345=CARTESIAN_POINT('',(-0.00338684210526315,0.00296298844986218,0.));
#346=CARTESIAN_POINT('',(-0.00338684210526315,0.00296298844986218,0.008));
#347=CARTESIAN_POINT('',(-0.00338684210526315,0.00296298844986218,0.008));
#348=CARTESIAN_POINT('',(-0.00714999999999987,0.00625519783859786,0.008));
#349=CARTESIAN_POINT('',(2.15583828997754E-19,1.51788304147971E-18,0.008));
#350=CARTESIAN_POINT('',(2.15583828997754E-19,1.51788304147971E-18,0.));
#351=CARTESIAN_POINT('',(0.00338684210526314,0.00296298844986218,0.));
#352=CARTESIAN_POINT('',(0.00338684210526314,0.00296298844986218,0.008));
#353=CARTESIAN_POINT('',(0.00338684210526314,0.00296298844986218,0.008));
#354=CARTESIAN_POINT('',(2.15583828997754E-19,1.51788304147971E-18,0.008));
#355=CARTESIAN_POINT('',(0.00714999999999987,0.00625519783859786,0.008));
#356=CARTESIAN_POINT('',(0.00714999999999987,0.00625519783859786,0.));
#357=CARTESIAN_POINT('',(0.00215,0.00625519783859786,0.));
#358=CARTESIAN_POINT('',(0.00215,0.00625519783859786,0.008));
#359=CARTESIAN_POINT('',(0.00215,0.00625519783859786,0.008));
#360=CARTESIAN_POINT('',(0.00714999999999987,0.00625519783859786,0.008));
#361=CARTESIAN_POINT('',(0.00215,0.035,0.008));
#362=CARTESIAN_POINT('',(0.00215,0.035,0.));
#363=CARTESIAN_POINT('',(0.00215,0.0637448021614022,0.));
#364=CARTESIAN_POINT('',(0.00215,0.0637448021614022,0.008));
#365=CARTESIAN_POINT('',(0.00215,0.0637448021614022,0.008));
#366=CARTESIAN_POINT('',(0.00215,0.035,0.008));
#367=CARTESIAN_POINT('',(0.00714999999999987,0.0637448021614022,0.008));
#368=CARTESIAN_POINT('',(0.00714999999999987,0.0637448021614022,0.));
#369=CARTESIAN_POINT('',(0.00338684210526316,0.0670370115501378,0.));
#370=CARTESIAN_POINT('',(0.00338684210526316,0.0670370115501378,0.008));
#371=CARTESIAN_POINT('',(0.00338684210526316,0.0670370115501378,0.008));
#372=CARTESIAN_POINT('',(0.00714999999999987,0.0637448021614022,0.008));
#373=CARTESIAN_POINT('',(1.0842021724855E-18,0.07,0.008));
#374=CARTESIAN_POINT('',(1.0842021724855E-18,0.07,0.));
#375=CARTESIAN_POINT('',(1.0842021724855E-18,0.07,0.008));
#376=CARTESIAN_POINT('',(-1.3164953090834E-19,0.07,0.008));
#377=CARTESIAN_POINT('',(-1.3164953090834E-19,0.07,0.008));
#378=CARTESIAN_POINT('',(0.00215,0.07,0.008));
#379=CARTESIAN_POINT('',(-1.3164953090834E-19,0.07,0.));
#380=CARTESIAN_POINT('',(0.00215,0.07,0.));
#381=CARTESIAN_POINT('',(-1.3164953090834E-19,0.,0.008));
#382=CARTESIAN_POINT('',(-1.3164953090834E-19,0.,0.008));
#383=CARTESIAN_POINT('',(0.00215,0.,0.008));
#384=CARTESIAN_POINT('',(-1.3164953090834E-19,0.,0.));
#385=CARTESIAN_POINT('',(0.00215,0.,0.));
#386=CARTESIAN_POINT('',(0.,0.035,0.008));
#387=CARTESIAN_POINT('',(0.,0.035,0.));
#388=MECHANICAL_DESIGN_GEOMETRIC_PRESENTATION_REPRESENTATION('',(#217),
#389);
#389=(
GEOMETRIC_REPRESENTATION_CONTEXT(3)
GLOBAL_UNCERTAINTY_ASSIGNED_CONTEXT((#390))
GLOBAL_UNIT_ASSIGNED_CONTEXT((#393,#392,#391))
REPRESENTATION_CONTEXT('Part 1','TOP_LEVEL_ASSEMBLY_PART')
);
#390=UNCERTAINTY_MEASURE_WITH_UNIT(LENGTH_MEASURE(1.E-8),#393,
'DISTANCE_ACCURACY_VALUE','Maximum Tolerance applied to model');
#391=(
NAMED_UNIT(*)
SI_UNIT($,.STERADIAN.)
SOLID_ANGLE_UNIT()
);
#392=(
NAMED_UNIT(*)
PLANE_ANGLE_UNIT()
SI_UNIT($,.RADIAN.)
);
#393=(
LENGTH_UNIT()
NAMED_UNIT(*)
SI_UNIT($,.METRE.)
);
#394=PRODUCT_DEFINITION_SHAPE('','',#395);
#395=PRODUCT_DEFINITION('','',#397,#396);
#396=PRODUCT_DEFINITION_CONTEXT('',#403,'design');
#397=PRODUCT_DEFINITION_FORMATION_WITH_SPECIFIED_SOURCE('','',#399,
 .NOT_KNOWN.);
#398=PRODUCT_RELATED_PRODUCT_CATEGORY('','',(#399));
#399=PRODUCT('Part 1','Part 1','Part 1',(#401));
#400=PRODUCT_CATEGORY('','');
#401=PRODUCT_CONTEXT('',#403,'mechanical');
#402=APPLICATION_PROTOCOL_DEFINITION('international standard',
'ap242_managed_model_based_3d_engineering',2020,#403);
#403=APPLICATION_CONTEXT('managed model based 3d engineering');
ENDSEC;
END-ISO-10303-21;
